<?xml version="1.0" encoding="iso-8859-1"?>
<!-- Generator: Adobe Illustrator 19.0.0, SVG Export Plug-In . SVG Version: 6.00 Build 0)  -->
<svg version="1.1" id="Capa_1" xmlns="http://www.w3.org/2000/svg" xmlns:xlink="http://www.w3.org/1999/xlink" x="0px" y="0px"
	 viewBox="0 0 480 480" style="enable-background:new 0 0 480 480;" xml:space="preserve">
<g>
	<g>
		<path d="M392.006,210.019c-44.51-82.763-147.685-113.773-230.448-69.263C84.821,182.026,51.66,274.595,84.736,355.204H40
			c-13.255,0-24-10.745-24-24v-128c0.084-70.658,57.342-127.916,128-128c4.418,0,8-3.582,8-8s-3.582-8-8-8
			c-79.491,0.093-143.907,64.509-144,144v128c0.026,22.08,17.92,39.974,40,40h52.296c44.51,82.763,147.685,113.773,230.448,69.263
			S436.516,292.781,392.006,210.019z M240,139.204c21.08,0,43.2,28.464,55.088,75.392l-19.736,14.096
			c-2.564,1.829-3.817,4.992-3.2,8.08l8,40c0.343,1.756,1.271,3.343,2.632,4.504l2.256,1.928h-79.272l-4.248-12.736l18.92-12.608
			c1.346-0.896,2.39-2.179,2.992-3.68l16-40c1.661-4.094-0.312-8.76-4.407-10.42c-0.737-0.299-1.514-0.486-2.305-0.556
			l-43.296-3.936C201.912,161.604,221.328,139.204,240,139.204z M298.768,231.628c2.776,15.358,4.425,30.898,4.936,46.496l-8.4-7.2
			l-6.448-32.216L298.768,231.628z M184.408,269.732l4.488,13.472h-12.712c0.318-23.002,3.208-45.896,8.616-68.256l35.784,3.256
			l-11.088,27.72l-21.936,14.624C184.559,262.549,183.268,266.31,184.408,269.732z M194.232,299.204l11.448,34.336l-21.544,5.384
			l-5.056-1.448c-1.69-12.692-2.657-25.47-2.896-38.272H194.232z M200.448,144.604c-12.515,15.767-21.792,33.852-27.296,53.216
			l-28.432-2.616c-3.057-0.289-6.007,1.209-7.576,3.848l-24,40c-1.204,2.002-1.473,4.431-0.736,6.648l8.16,24.448l5.216,13.056
			H88.408C91.928,217.665,137.103,161.782,200.448,144.604z M151.432,304.228l-2.016-5.024h10.768
			c0.248,11.552,1.024,22.752,2.28,33.528l-21.728-6.208l9.92-14.88C152.121,309.451,152.412,306.677,151.432,304.228z
			 M160.184,283.204h-17.176l-7.416-18.528l-6.84-20.512l19.528-32.536l20.56,1.864
			C163.459,236.351,160.557,259.723,160.184,283.204z M111,371.204h17c4.418,0,8-3.582,8-8s-3.582-8-8-8h-25.68
			c-8.201-17.596-12.925-36.612-13.912-56h43.776l2.824,7.064l-13.664,20.496c-2.45,3.677-1.456,8.643,2.22,11.094
			c0.687,0.458,1.442,0.807,2.236,1.034l39.2,11.2c6.52,37.6,19.104,68.528,35.472,87.712
			C163.302,427.712,131.333,403.915,111,371.204z M240,443.204c-22.944,0-47.072-33.72-57.992-88.28
			c1.289,0.346,2.647,0.346,3.936,0l32-8c4.286-1.073,6.891-5.417,5.818-9.703c-0.049-0.197-0.106-0.392-0.17-0.585l-12.488-37.432
			h92.6l0.112,0.096c-0.31,17.522-2.041,34.99-5.176,52.232l-25.32-4.216c-2.158-0.362-4.369,0.176-6.12,1.488l-32,24
			c-3.094,2.318-4.087,6.517-2.36,9.976l16,32c1.355,2.712,4.128,4.425,7.16,4.424c0.38,0.001,0.76-0.026,1.136-0.08l18.248-2.608
			C264.68,433.604,252.184,443.204,240,443.204z M309.216,376.324l-3.952,19.76l-2.528,0.368
			C305.128,390.116,307.28,383.38,309.216,376.324z M295.288,367.188c-2.695,10.903-6.297,21.561-10.768,31.864l-23.944,3.416
			l-10.4-20.872l23.92-17.936L295.288,367.188z M279.552,437.804c6.151-7.39,11.404-15.484,15.648-24.112l17.968-2.568
			c3.355-0.483,6.04-3.028,6.704-6.352l8-40c0.865-4.333-1.946-8.546-6.279-9.412c-0.08-0.016-0.161-0.031-0.241-0.044l-6.992-1.168
			c2.542-13.747,4.207-27.642,4.984-41.6l19.48,16.696c1.437,1.248,3.272,1.943,5.176,1.96h32c4.418,0.001,8-3.581,8.001-7.999
			c0-0.38-0.027-0.76-0.081-1.137l-3.272-22.864h10.944C388.072,364.742,342.897,420.626,279.552,437.804z M319.816,283.204
			c-0.363-20.741-2.655-41.404-6.848-61.72l19.704-14.072l27.568,62.024l1.968,13.768H319.816z M364.488,299.204l2.288,16H346.96
			l-18.664-16H364.488z M378.4,283.204l-2.448-17.136c-0.106-0.728-0.31-1.439-0.608-2.112l-32-72
			c-1.781-4.043-6.503-5.877-10.546-4.096c-0.512,0.226-1,0.505-1.454,0.832L308.8,204.804c-5.42-21.893-15.4-42.396-29.288-60.168
			c63.35,17.16,108.541,73.03,112.08,138.568H378.4z"/>
	</g>
</g>
<g>
	<g>
		<path d="M440,67.204h-72c-4.418,0-8,3.582-8,8s3.582,8,8,8h72c13.255,0,24,10.745,24,24v67.36l-36.704,20.976l4.544-22.736
			c1.015-4.3-1.648-8.609-5.948-9.624c-4.3-1.015-8.609,1.648-9.624,5.948c-0.042,0.179-0.078,0.359-0.108,0.54l-8,40
			c-0.176,0.938-0.176,1.901,0,2.84c0.048,0.264,0.112,0.512,0.184,0.8c0.183,0.677,0.452,1.328,0.8,1.936
			c0.107,0.211,0.224,0.417,0.352,0.616c0.498,0.727,1.114,1.366,1.824,1.888l0.096,0.048c0.174,0.1,0.353,0.191,0.536,0.272
			c0.664,0.402,1.384,0.704,2.136,0.896c0.12,0,0.208,0.112,0.336,0.136l40,8c0.52,0.089,1.048,0.124,1.576,0.104
			c4.418,0.004,8.004-3.574,8.008-7.992c0.004-3.808-2.677-7.09-6.408-7.848l-19.048-3.816l37.448-21.4
			c2.48-1.432,4.006-4.08,4-6.944v-72C479.974,85.123,462.08,67.23,440,67.204z"/>
	</g>
</g>
<g>
	<g>
		<path d="M341.656,69.548l-32-32c-1.5-1.5-3.534-2.344-5.656-2.344h-83.056L215.2,23.628c-1.362-2.725-4.153-4.441-7.2-4.424h-32
			c-4.418,0-8,3.582-8,8v48c0,4.418,3.582,8,8,8h48v16c0,4.418,3.582,8,8,8h24c2.674,0,5.172-1.335,6.656-3.56l13.624-20.44H336
			c4.418-0.001,7.999-3.583,7.998-8.002C343.998,73.081,343.155,71.048,341.656,69.548z M251.72,91.204H240v-8h17.048L251.72,91.204
			z M184,67.204v-32h19.056l5.784,11.576c1.355,2.712,4.128,4.425,7.16,4.424h84.688l16,16H184z"/>
	</g>
</g>
<g>
</g>
<g>
</g>
<g>
</g>
<g>
</g>
<g>
</g>
<g>
</g>
<g>
</g>
<g>
</g>
<g>
</g>
<g>
</g>
<g>
</g>
<g>
</g>
<g>
</g>
<g>
</g>
<g>
</g>
</svg>
