<?xml version="1.0" encoding="iso-8859-1"?>
<!-- Generator: Adobe Illustrator 19.0.0, SVG Export Plug-In . SVG Version: 6.00 Build 0)  -->
<svg version="1.1" id="Capa_1" xmlns="http://www.w3.org/2000/svg" xmlns:xlink="http://www.w3.org/1999/xlink" x="0px" y="0px"
	 viewBox="0 0 480 480" style="enable-background:new 0 0 480 480;" xml:space="preserve">
<g>
	<g>
		<path d="M384,368H264V112h88c4.418,0,8-3.582,8-8V8c0-4.418-3.582-8-8-8H128c-4.418,0-8,3.582-8,8v96c0,4.418,3.582,8,8,8h88v256
			H96c-4.418,0-8,3.582-8,8v48c0,4.418,3.582,8,8,8h16v40c0,4.418,3.582,8,8,8h240c4.418,0,8-3.582,8-8v-40h16c4.418,0,8-3.582,8-8
			v-48C392,371.582,388.418,368,384,368z M136,96V16h208v80H136z M248,112v256h-16V112H248z M352,464h-16v-16h-16v16h-16v-16h-16v16
			H128v-32h224V464z M376,416H104v-32h272V416z"/>
	</g>
</g>
<g>
	<g>
		<path d="M320,32H160c-4.418,0-8,3.582-8,8v32c0,4.418,3.582,8,8,8h160c4.418,0,8-3.582,8-8V40C328,35.582,324.418,32,320,32z
			 M312,64H168V48h144V64z"/>
	</g>
</g>
<g>
</g>
<g>
</g>
<g>
</g>
<g>
</g>
<g>
</g>
<g>
</g>
<g>
</g>
<g>
</g>
<g>
</g>
<g>
</g>
<g>
</g>
<g>
</g>
<g>
</g>
<g>
</g>
<g>
</g>
</svg>
