<?xml version="1.0" encoding="iso-8859-1"?>
<!-- Generator: Adobe Illustrator 19.0.0, SVG Export Plug-In . SVG Version: 6.00 Build 0)  -->
<svg version="1.1" id="Capa_1" xmlns="http://www.w3.org/2000/svg" xmlns:xlink="http://www.w3.org/1999/xlink" x="0px" y="0px"
	 viewBox="0 0 480.098 480.098" style="enable-background:new 0 0 480.098 480.098;" xml:space="preserve">
<g>
	<g>
		<path d="M131.372,108.552c-0.006-0.013-0.013-0.025-0.019-0.038c-1.979-3.95-6.786-5.547-10.736-3.568
			c-5.063,2.536-9.987,5.34-14.752,8.4c-22.911,14.721-41.727,34.997-54.696,58.944c-2.11,3.879-0.678,8.735,3.2,10.848
			c1.164,0.632,2.468,0.962,3.792,0.96c2.941,0.005,5.648-1.605,7.048-4.192c11.669-21.567,28.609-39.828,49.24-53.08
			c4.294-2.751,8.729-5.274,13.288-7.56C131.699,117.311,133.327,112.515,131.372,108.552z"/>
	</g>
</g>
<g>
	<g>
		<path d="M405.153,96.098h34.896c4.418,0,8-3.582,8-8s-3.582-8-8-8h-28.688l66.344-66.344c3.123-3.124,3.123-8.188,0-11.312
			c-3.124-3.123-8.188-3.123-11.312,0l-80,80c-0.176,0.176-0.28,0.4-0.432,0.584c-29.606-17.655-63.442-26.961-97.912-26.928
			h-17.064l-7.016-49.136c-0.565-3.94-3.94-6.865-7.92-6.864h-32c-3.98-0.001-7.355,2.924-7.92,6.864l-7.016,49.136h-17.064
			c-105.987,0.123-191.877,86.013-192,192c0,4.418,3.582,8,8,8h208v216c0,4.418,3.582,8,8,8h96c4.418,0,8-3.582,8-8v-64
			c0-4.418-3.582-8-8-8h-32c-4.418,0-8,3.582-8,8v24h-16v-176h208c4.418,0,8-3.582,8-8
			C480.037,188.551,452.364,132.389,405.153,96.098z M230.985,16.098h18.128l5.712,40h-29.552L230.985,16.098z M16.225,240.098
			c4.393-93.944,81.778-167.885,175.824-168h4.752l-58.4,168H16.225z M288.049,448.098c4.418,0,8-3.582,8-8v-24h16v48h-80v-208h16
			v184c0,4.418,3.582,8,8,8H288.049z M155.305,240.098l58.4-168h52.624l58.4,168H155.305z M463.873,240.098H341.737l-58.4-168h4.712
			C382.095,72.213,459.48,146.155,463.873,240.098L463.873,240.098z"/>
	</g>
</g>
<g>
	<g>
		<path d="M413.901,2.442c-3.07-3.178-8.134-3.266-11.312-0.196c-0.067,0.064-0.132,0.13-0.196,0.196l-26.344,26.344V16.098
			c0-4.418-3.582-8-8-8s-8,3.582-8,8v32c-0.001,3.235,1.947,6.153,4.936,7.392c0.971,0.405,2.012,0.611,3.064,0.608
			c2.122,0,4.156-0.844,5.656-2.344l40-40C416.883,10.685,416.971,5.62,413.901,2.442z"/>
	</g>
</g>
<g>
</g>
<g>
</g>
<g>
</g>
<g>
</g>
<g>
</g>
<g>
</g>
<g>
</g>
<g>
</g>
<g>
</g>
<g>
</g>
<g>
</g>
<g>
</g>
<g>
</g>
<g>
</g>
<g>
</g>
</svg>
