<?xml version="1.0" encoding="iso-8859-1"?>
<!-- Generator: Adobe Illustrator 19.0.0, SVG Export Plug-In . SVG Version: 6.00 Build 0)  -->
<svg version="1.1" id="Capa_1" xmlns="http://www.w3.org/2000/svg" xmlns:xlink="http://www.w3.org/1999/xlink" x="0px" y="0px"
	 viewBox="0 0 480 480" style="enable-background:new 0 0 480 480;" xml:space="preserve">
<g>
	<g>
		<path d="M112.216,49.174C88.45,49.169,69.18,68.432,69.176,92.198c-0.004,23.766,19.258,43.036,43.024,43.04
			c0.005,0,0.011,0,0.016,0c23.751-0.026,42.998-19.273,43.024-43.024C155.244,68.448,135.982,49.178,112.216,49.174z
			 M112.224,119.238c-0.003,0-0.005,0-0.008,0c-14.919-0.018-27.01-12.105-27.032-27.024c-0.004-14.929,12.095-27.036,27.024-27.04
			c14.929-0.004,27.036,12.095,27.04,27.024C139.252,107.127,127.153,119.233,112.224,119.238z"/>
	</g>
</g>
<g>
	<g>
		<path d="M112.196,20.002C72.321,20.013,40.002,52.34,40,92.214c0,15.536,49.736,122.704,64.976,155.2
			c1.323,2.801,4.143,4.586,7.24,4.584c3.104,0.003,5.929-1.791,7.248-4.6c15.24-32.48,64.968-139.648,64.968-155.2
			C184.421,52.314,152.079,19.991,112.196,20.002z M112.216,225.078C83.912,164.062,56.584,101.03,56,92.214
			c0.035-31.033,25.183-56.181,56.216-56.216c31.006,0.04,56.141,25.146,56.216,56.152
			C167.776,101.174,140.488,164.15,112.216,225.078z"/>
	</g>
</g>
<g>
	<g>
		<path d="M32,267.998c-17.673,0-32,14.327-32,32c0,17.673,14.327,32,32,32s32-14.327,32-32C64,282.325,49.673,267.998,32,267.998z
			 M32,315.998c-8.837,0-16-7.163-16-16s7.163-16,16-16s16,7.163,16,16S40.837,315.998,32,315.998z"/>
	</g>
</g>
<g>
	<g>
		<circle cx="112" cy="299.998" r="16"/>
	</g>
</g>
<g>
	<g>
		<path d="M192,267.998c-17.673,0-32,14.327-32,32c0,17.673,14.327,32,32,32s32-14.327,32-32
			C224,282.325,209.673,267.998,192,267.998z M192,315.998c-8.837,0-16-7.163-16-16s7.163-16,16-16s16,7.163,16,16
			S200.837,315.998,192,315.998z"/>
	</g>
</g>
<g>
	<g>
		<path d="M272,267.998c-17.673,0-32,14.327-32,32c0,17.673,14.327,32,32,32c17.673,0,32-14.327,32-32
			C304,282.325,289.673,267.998,272,267.998z M272,315.998c-8.837,0-16-7.163-16-16s7.163-16,16-16s16,7.163,16,16
			S280.837,315.998,272,315.998z"/>
	</g>
</g>
<g>
	<g>
		<path d="M472,203.998H328c-4.418,0-8,3.582-8,8v160c0,4.418,3.582,8,8,8h144c4.418,0,8-3.582,8-8v-160
			C480,207.58,476.418,203.998,472,203.998z M384,219.998h32v32h-32V219.998z M464,363.998H336v-144h32v40c0,4.418,3.582,8,8,8h48
			c4.418,0,8-3.582,8-8v-40h32V363.998z"/>
	</g>
</g>
<g>
	<g>
		<path d="M440,331.998h-16c-4.418,0-8,3.582-8,8s3.582,8,8,8h16c4.418,0,8-3.582,8-8S444.418,331.998,440,331.998z"/>
	</g>
</g>
<g>
	<g>
		<path d="M160,435.998h-40v-72c0-4.418-3.582-8-8-8s-8,3.582-8,8v80c0,4.418,3.582,8,8,8h48c4.418,0,8-3.582,8-8
			S164.418,435.998,160,435.998z"/>
	</g>
</g>
<g>
	<g>
		<rect x="192" y="379.998" width="16" height="16"/>
	</g>
</g>
<g>
	<g>
		<rect x="224" y="379.998" width="48" height="16"/>
	</g>
</g>
<g>
	<g>
		<rect x="192" y="411.998" width="80" height="16"/>
	</g>
</g>
<g>
	<g>
		<rect x="192" y="443.998" width="16" height="16"/>
	</g>
</g>
<g>
	<g>
		<rect x="224" y="443.998" width="48" height="16"/>
	</g>
</g>
<g>
	<g>
		<path d="M320,99.998h-48c-4.418,0-8,3.582-8,8v136c0,4.418,3.582,8,8,8s8-3.582,8-8v-128h40c4.418,0,8-3.582,8-8
			S324.418,99.998,320,99.998z"/>
	</g>
</g>
<g>
	<g>
		<rect x="352" y="155.998" width="16" height="16"/>
	</g>
</g>
<g>
	<g>
		<rect x="384" y="155.998" width="48" height="16"/>
	</g>
</g>
<g>
	<g>
		<rect x="352" y="123.998" width="80" height="16"/>
	</g>
</g>
<g>
	<g>
		<rect x="352" y="91.998" width="16" height="16"/>
	</g>
</g>
<g>
	<g>
		<rect x="384" y="91.998" width="48" height="16"/>
	</g>
</g>
<g>
</g>
<g>
</g>
<g>
</g>
<g>
</g>
<g>
</g>
<g>
</g>
<g>
</g>
<g>
</g>
<g>
</g>
<g>
</g>
<g>
</g>
<g>
</g>
<g>
</g>
<g>
</g>
<g>
</g>
</svg>
