<?xml version="1.0" encoding="iso-8859-1"?>
<!-- Generator: Adobe Illustrator 19.0.0, SVG Export Plug-In . SVG Version: 6.00 Build 0)  -->
<svg version="1.1" id="Capa_1" xmlns="http://www.w3.org/2000/svg" xmlns:xlink="http://www.w3.org/1999/xlink" x="0px" y="0px"
	 viewBox="0 0 480 480" style="enable-background:new 0 0 480 480;" xml:space="preserve">
<g>
	<g>
		<path d="M200,160c22.08-0.026,39.974-17.92,40-40V40c-0.026-22.08-17.92-39.974-40-40H93.736C59.658,0.035,32.04,27.65,32,61.728
			v356.544C32.04,452.35,59.658,479.965,93.736,480H200c22.08-0.026,39.974-17.92,40-40v-80c-0.026-22.08-17.92-39.974-40-40h-40
			V160H200z M160,16h40c13.255,0,24,10.745,24,24v80c0,13.255-10.745,24-24,24h-40V16z M144,464H93.736
			c-25.247-0.022-45.71-20.481-45.736-45.728V61.728C48.026,36.481,68.489,16.022,93.736,16H144V464z M200,336
			c13.255,0,24,10.745,24,24v80c0,13.255-10.745,24-24,24h-40V336H200z"/>
	</g>
</g>
<g>
	<g>
		<path d="M440,120H280c-4.418,0-8,3.582-8,8v61.4l-62.472,85.896c-2.598,3.574-1.807,8.577,1.767,11.175
			c1.367,0.994,3.015,1.529,4.705,1.529c0.961-0.003,1.914-0.173,2.816-0.504L272,267.544V288c0,4.418,3.582,8,8,8h160
			c4.418,0,8-3.582,8-8V128C448,123.582,444.418,120,440,120z M272,250.456l-33.848,12.696L272,216.6V250.456z M432,280H288V136h144
			V280z"/>
	</g>
</g>
<g>
	<g>
		<rect x="304" y="152" width="16" height="16"/>
	</g>
</g>
<g>
	<g>
		<rect x="336" y="152" width="80" height="16"/>
	</g>
</g>
<g>
	<g>
		<rect x="304" y="184" width="112" height="16"/>
	</g>
</g>
<g>
	<g>
		<rect x="304" y="216" width="16" height="16"/>
	</g>
</g>
<g>
	<g>
		<rect x="336" y="216" width="80" height="16"/>
	</g>
</g>
<g>
	<g>
		<rect x="304" y="248" width="112" height="16"/>
	</g>
</g>
<g>
</g>
<g>
</g>
<g>
</g>
<g>
</g>
<g>
</g>
<g>
</g>
<g>
</g>
<g>
</g>
<g>
</g>
<g>
</g>
<g>
</g>
<g>
</g>
<g>
</g>
<g>
</g>
<g>
</g>
</svg>
