<?xml version="1.0" encoding="iso-8859-1"?>
<!-- Generator: Adobe Illustrator 19.0.0, SVG Export Plug-In . SVG Version: 6.00 Build 0)  -->
<svg version="1.1" id="Capa_1" xmlns="http://www.w3.org/2000/svg" xmlns:xlink="http://www.w3.org/1999/xlink" x="0px" y="0px"
	 viewBox="0 0 479.644 479.644" style="enable-background:new 0 0 479.644 479.644;" xml:space="preserve">
<g>
	<g>
		<path d="M415.803,383.644h-352c-4.418,0-8,3.582-8,8v80c0,4.418,3.582,8,8,8h352c4.418,0,8-3.582,8-8v-80
			C423.803,387.226,420.221,383.644,415.803,383.644z M407.803,463.644h-304v-40c0-4.418-3.582-8-8-8s-8,3.582-8,8v40h-16v-64h304
			v40c0,4.418,3.582,8,8,8s8-3.582,8-8v-40h16V463.644z"/>
	</g>
</g>
<g>
	<g>
		<path d="M230.963,164.068l-80-160c-2.358-3.954-7.475-5.249-11.429-2.891c-1.189,0.709-2.182,1.702-2.891,2.891l-80,160
			c-1.975,3.952-0.372,8.757,3.58,10.732c1.112,0.555,2.337,0.844,3.58,0.844h40v184c0,4.418,3.582,8,8,8h64c4.418,0,8-3.582,8-8
			v-184h40c4.418,0.002,8.002-3.578,8.004-7.996C231.807,166.406,231.519,165.18,230.963,164.068z M167.803,351.644h-48v-176h48
			V351.644z M76.747,159.644l67.056-134.112l67.056,134.112H76.747z"/>
	</g>
</g>
<g>
	<g>
		<path d="M423.003,164.068l-80-160c-2.358-3.954-7.474-5.249-11.429-2.891c-1.189,0.709-2.182,1.702-2.891,2.891l-80,160
			c-1.975,3.952-0.372,8.757,3.58,10.732c1.099,0.549,2.311,0.838,3.54,0.844h40v184c0,4.418,3.582,8,8,8h64c4.418,0,8-3.582,8-8
			v-184h40c4.418,0.024,8.02-3.538,8.044-7.956C423.854,166.432,423.565,165.192,423.003,164.068z M359.803,351.644h-48v-176h48
			V351.644z M268.747,159.644l67.056-134.112l67.056,134.112H268.747z"/>
	</g>
</g>
<g>
</g>
<g>
</g>
<g>
</g>
<g>
</g>
<g>
</g>
<g>
</g>
<g>
</g>
<g>
</g>
<g>
</g>
<g>
</g>
<g>
</g>
<g>
</g>
<g>
</g>
<g>
</g>
<g>
</g>
</svg>
