<?xml version="1.0" encoding="iso-8859-1"?>
<!-- Generator: Adobe Illustrator 19.0.0, SVG Export Plug-In . SVG Version: 6.00 Build 0)  -->
<svg version="1.1" id="Capa_1" xmlns="http://www.w3.org/2000/svg" xmlns:xlink="http://www.w3.org/1999/xlink" x="0px" y="0px"
	 viewBox="0 0 480 480" style="enable-background:new 0 0 480 480;" xml:space="preserve">
<g>
	<g>
		<path d="M232,336h-48c-4.418,0-8,3.582-8,8v40c0,4.418,3.582,8,8,8h48c4.418,0,8-3.582,8-8v-40C240,339.582,236.418,336,232,336z
			 M224,376h-32v-24h32V376z"/>
	</g>
</g>
<g>
	<g>
		<rect x="384" y="344" width="16" height="16"/>
	</g>
</g>
<g>
	<g>
		<rect x="416" y="344" width="32" height="16"/>
	</g>
</g>
<g>
	<g>
		<rect x="384" y="376" width="64" height="16"/>
	</g>
</g>
<g>
	<g>
		<path d="M479.944,127.712c-0.034-0.842-0.201-1.674-0.496-2.464c-0.072-0.176-0.112-0.36-0.192-0.528
			c-0.08-0.168-0.048-0.2-0.096-0.296l-32-64c-1.355-2.712-4.128-4.425-7.16-4.424H184c-3.032-0.001-5.805,1.712-7.16,4.424l-32,64
			c-0.048,0.096-0.056,0.2-0.104,0.296c-0.048,0.096-0.112,0.352-0.184,0.528c-0.295,0.79-0.462,1.622-0.496,2.464
			c0,0.096-0.056,0.184-0.056,0.288v40H0v16h144v16H32v16h112v200c0,4.418,3.582,8,8,8h320c4.418,0,8-3.582,8-8V128
			C480,127.896,479.944,127.816,479.944,127.712z M435.056,72l24,48h-108l-6-48H435.056z M295.064,72h33.872l6,48h-45.872
			L295.064,72z M288,136h48v96h-48V136z M188.936,72h90l-6,48h-108L188.936,72z M464,408H160V216h48v-16h-48v-16h48v-16h-48v-32h112
			v104c0,4.418,3.582,8,8,8h64c4.418,0,8-3.582,8-8V136h112V408z"/>
	</g>
</g>
<g>
	<g>
		<rect y="304" width="128" height="16"/>
	</g>
</g>
<g>
	<g>
		<rect x="32" y="336" width="96" height="16"/>
	</g>
</g>
<g>
</g>
<g>
</g>
<g>
</g>
<g>
</g>
<g>
</g>
<g>
</g>
<g>
</g>
<g>
</g>
<g>
</g>
<g>
</g>
<g>
</g>
<g>
</g>
<g>
</g>
<g>
</g>
<g>
</g>
</svg>
