<?xml version="1.0" encoding="iso-8859-1"?>
<!-- Generator: Adobe Illustrator 19.0.0, SVG Export Plug-In . SVG Version: 6.00 Build 0)  -->
<svg version="1.1" id="Capa_1" xmlns="http://www.w3.org/2000/svg" xmlns:xlink="http://www.w3.org/1999/xlink" x="0px" y="0px"
	 viewBox="0 0 480 480" style="enable-background:new 0 0 480 480;" xml:space="preserve">
<g>
	<g>
		<path d="M240,208c-44.163,0.048-79.951,35.837-80,80c0,44.183,35.817,80,80,80s80-35.817,80-80C320,243.817,284.183,208,240,208z
			 M240,352c-35.346,0-64-28.654-64-64c0-35.346,28.654-64,64-64c35.33,0.04,63.96,28.67,64,64C304,323.346,275.346,352,240,352z"/>
	</g>
</g>
<g>
	<g>
		<path d="M360,144c39.746-0.044,71.956-32.254,72-72c0-4.418-3.582-8-8-8H304V8c0-4.418-3.582-8-8-8H184c-4.418,0-8,3.582-8,8v56
			H56c-4.418,0-8,3.582-8,8c0.044,39.746,32.254,71.956,72,72h96v32h-48c-39.746,0.044-71.956,32.254-72,72v136h-8
			c-4.418,0-8,3.582-8,8v80c0,4.418,3.582,8,8,8h304c4.418,0,8-3.582,8-8v-80c0-4.418-3.582-8-8-8h-8V248
			c-0.044-39.746-32.254-71.956-72-72h-48v-32H360z M192,16h96v48h-96V16z M384,464H96v-64h288V464z M312,192
			c30.911,0.04,55.96,25.089,56,56v136H112V248c0.04-30.911,25.089-55.96,56-56H312z M232,176v-32h16v32H232z M120,128
			c-27.826-0.035-51.419-20.465-55.432-48h350.864c-4.013,27.535-27.606,47.965-55.432,48H120z"/>
	</g>
</g>
<g>
	<g>
		<path d="M277.46,250.344c-3.1-2.995-8.016-2.995-11.116,0l-32,32c-3.123,3.124-3.123,8.188,0,11.312
			c3.124,3.123,8.188,3.123,11.312,0l32-32C280.726,258.478,280.638,253.414,277.46,250.344z"/>
	</g>
</g>
<g>
	<g>
		<path d="M152,424h-32c-4.418,0-8,3.582-8,8s3.582,8,8,8h32c4.418,0,8-3.582,8-8S156.418,424,152,424z"/>
	</g>
</g>
<g>
	<g>
		<path d="M360,424h-32c-4.418,0-8,3.582-8,8s3.582,8,8,8h32c4.418,0,8-3.582,8-8S364.418,424,360,424z"/>
	</g>
</g>
<g>
</g>
<g>
</g>
<g>
</g>
<g>
</g>
<g>
</g>
<g>
</g>
<g>
</g>
<g>
</g>
<g>
</g>
<g>
</g>
<g>
</g>
<g>
</g>
<g>
</g>
<g>
</g>
<g>
</g>
</svg>
