<?xml version="1.0" encoding="iso-8859-1"?>
<!-- Generator: Adobe Illustrator 19.0.0, SVG Export Plug-In . SVG Version: 6.00 Build 0)  -->
<svg version="1.1" id="Capa_1" xmlns="http://www.w3.org/2000/svg" xmlns:xlink="http://www.w3.org/1999/xlink" x="0px" y="0px"
	 viewBox="0 0 480 480" style="enable-background:new 0 0 480 480;" xml:space="preserve">
<g>
	<g>
		<path d="M472,136h-10.728l-45.92-107.152C414.091,25.907,411.2,24,408,24H72c-3.2,0-6.091,1.907-7.352,4.848L18.728,136H8
			c-4.418,0-8,3.582-8,8v96c0,4.418,3.582,8,8,8h8v200c0,4.418,3.582,8,8,8h424c4.418,0,8-3.582,8-8V248h16c4.418,0,8-3.582,8-8v-96
			C480,139.582,476.418,136,472,136z M77.272,40h325.456l41.136,96H36.136L77.272,40z M392,440h-96V280h96V440z M440,440h-32V272
			c0-4.418-3.582-8-8-8H288c-4.418,0-8,3.582-8,8v168H32V248h408V440z M464,184H336c-4.418,0-8,3.582-8,8s3.582,8,8,8h128v32H16v-32
			h128c4.418,0,8-3.582,8-8s-3.582-8-8-8H16v-32h448V184z"/>
	</g>
</g>
<g>
	<g>
		<path d="M247.624,269.536c-0.04-0.128-0.128-0.224-0.176-0.352c-0.12-0.304-0.288-0.56-0.432-0.848
			c-0.291-0.573-0.648-1.11-1.064-1.6c-0.218-0.243-0.45-0.473-0.696-0.688c-0.486-0.426-1.023-0.789-1.6-1.08
			c-0.257-0.155-0.524-0.291-0.8-0.408c-0.909-0.362-1.878-0.552-2.856-0.56H64c-0.974,0.015-1.937,0.21-2.84,0.576
			c-0.276,0.117-0.543,0.253-0.8,0.408c-0.577,0.291-1.114,0.654-1.6,1.08c-0.73,0.631-1.329,1.401-1.76,2.264
			c-0.144,0.288-0.312,0.544-0.432,0.848c-0.048,0.128-0.136,0.224-0.176,0.352c-0.247,0.776-0.374,1.586-0.376,2.4L56,272v128
			c0,4.418,3.582,8,8,8h176c4.418,0,8-3.582,8-8V272v-0.064C248,271.121,247.873,270.312,247.624,269.536z M215.4,280L152,326.112
			L88.6,280H215.4z M232,392H72V287.704l75.296,54.768c2.805,2.039,6.603,2.039,9.408,0L232,287.704V392z"/>
	</g>
</g>
<g>
	<g>
		<path d="M368,336c-4.418,0-8,3.582-8,8v16c0,4.418,3.582,8,8,8s8-3.582,8-8v-16C376,339.582,372.418,336,368,336z"/>
	</g>
</g>
<g>
	<g>
		<path d="M304,168H176c-4.418,0-8,3.582-8,8v32c0,4.418,3.582,8,8,8h128c4.418,0,8-3.582,8-8v-32C312,171.582,308.418,168,304,168z
			 M296,200H184v-16h112V200z"/>
	</g>
</g>
<g>
</g>
<g>
</g>
<g>
</g>
<g>
</g>
<g>
</g>
<g>
</g>
<g>
</g>
<g>
</g>
<g>
</g>
<g>
</g>
<g>
</g>
<g>
</g>
<g>
</g>
<g>
</g>
<g>
</g>
</svg>
