<?xml version="1.0" encoding="iso-8859-1"?>
<!-- Generator: Adobe Illustrator 19.0.0, SVG Export Plug-In . SVG Version: 6.00 Build 0)  -->
<svg version="1.1" id="Capa_1" xmlns="http://www.w3.org/2000/svg" xmlns:xlink="http://www.w3.org/1999/xlink" x="0px" y="0px"
	 viewBox="0 0 480 480" style="enable-background:new 0 0 480 480;" xml:space="preserve">
<g>
	<g>
		<path d="M473.936,80.244l-128-32c-1.412-0.364-2.897-0.325-4.288,0.112l-24,7.392c-30.887-42.871-90.679-52.585-133.549-21.699
			c-8.353,6.018-15.68,13.345-21.699,21.699l-24-7.392c-1.391-0.436-2.876-0.475-4.288-0.112l-128,32
			C2.53,81.114,0.006,84.318,0,88.004v368c0.001,4.418,3.584,7.999,8.002,7.998c0.652,0,1.301-0.08,1.934-0.238l125.848-31.456
			l101.864,31.344c1.533,0.471,3.171,0.471,4.704,0l101.864-31.344l125.848,31.456c4.287,1.069,8.629-1.539,9.698-5.826
			c0.158-0.633,0.238-1.282,0.238-1.934v-368C479.999,84.332,477.499,81.133,473.936,80.244z M240,32.004
			c44.163,0.049,79.952,35.837,80,80c-0.224,11.944-40.144,103.472-80,189.104c-39.864-85.64-79.784-177.184-80-189.104
			C160.049,67.841,195.837,32.053,240,32.004z M464,445.756l-118.064-29.512c-1.412-0.364-2.897-0.325-4.288,0.112L240,447.636
			l-101.648-31.28c-1.391-0.437-2.876-0.475-4.288-0.112L16,445.756V94.252l119.784-29.944l18.088,5.6
			c-6.472,13.09-9.85,27.493-9.872,42.096c0,21.208,73.936,179.824,88.8,211.4c1.88,3.999,6.645,5.716,10.643,3.837
			c1.687-0.793,3.044-2.15,3.837-3.837c14.784-31.576,88.72-190.192,88.72-211.4c-0.016-14.617-3.394-29.033-9.872-42.136
			l18.088-5.6L464,94.252V445.756z"/>
	</g>
</g>
<g>
	<g>
		<path d="M240,56.004c-30.928,0-56,25.072-56,56c0.035,30.913,25.087,55.965,56,56c30.928,0,56-25.072,56-56
			C296,81.076,270.928,56.004,240,56.004z M240,152.004c-22.091,0-40-17.909-40-40c0.026-22.08,17.92-39.974,40-40
			c22.091,0,40,17.909,40,40S262.091,152.004,240,152.004z"/>
	</g>
</g>
<g>
	<g>
		<path d="M240,344.004c-31.808,0-64,10.992-64,32s32.192,32,64,32c31.808,0,64-10.992,64-32S271.808,344.004,240,344.004z
			 M240,392.004c-29.776,0-48-10.4-48-16c0-5.6,18.224-16,48-16s48,10.4,48,16C288,381.604,269.776,392.004,240,392.004z"/>
	</g>
</g>
<g>
	<g>
		<path d="M136,144.004c-4.418,0-8,3.582-8,8v240c0,4.418,3.582,8,8,8s8-3.582,8-8v-240C144,147.586,140.418,144.004,136,144.004z"
			/>
	</g>
</g>
<g>
	<g>
		<path d="M344,144.004c-4.418,0-8,3.582-8,8v240c0,4.418,3.582,8,8,8s8-3.582,8-8v-240C352,147.586,348.418,144.004,344,144.004z"
			/>
	</g>
</g>
<g>
</g>
<g>
</g>
<g>
</g>
<g>
</g>
<g>
</g>
<g>
</g>
<g>
</g>
<g>
</g>
<g>
</g>
<g>
</g>
<g>
</g>
<g>
</g>
<g>
</g>
<g>
</g>
<g>
</g>
</svg>
