<?xml version="1.0" encoding="iso-8859-1"?>
<!-- Generator: Adobe Illustrator 19.0.0, SVG Export Plug-In . SVG Version: 6.00 Build 0)  -->
<svg version="1.1" id="Capa_1" xmlns="http://www.w3.org/2000/svg" xmlns:xlink="http://www.w3.org/1999/xlink" x="0px" y="0px"
	 viewBox="0 0 480 480" style="enable-background:new 0 0 480 480;" xml:space="preserve">
<g>
	<g>
		<path d="M440,352h-56v-16h40c4.418,0,8-3.582,8-8V32c0-4.418-3.582-8-8-8h-40V8c0-4.418-3.582-8-8-8H72
			C49.92,0.026,32.026,17.92,32,40v400c0.026,22.08,17.92,39.974,40,40h304c4.418,0,8-3.582,8-8v-24h56c4.418,0,8-3.582,8-8v-80
			C448,355.582,444.418,352,440,352z M384,40h32v280h-32V40z M368,464H72c-13.255,0-24-10.745-24-24V40c0-13.255,10.745-24,24-24
			h296V464z M432,432h-48v-64h48V432z"/>
	</g>
</g>
<g>
	<g>
		<path d="M208,152c-57.438,0-104,46.562-104,104s46.562,104,104,104s104-46.562,104-104C311.934,198.59,265.41,152.066,208,152z
			 M295.592,248h-39.768c0.142-26.013-6.076-51.667-18.112-74.728C269.865,184.848,292.424,213.973,295.592,248z M208,168
			c14.296,0,30.168,33.712,31.832,80h-63.664C177.832,201.712,193.704,168,208,168z M178.288,173.272
			c-12.036,23.061-18.254,48.715-18.112,74.728h-39.768C123.576,213.974,146.135,184.848,178.288,173.272z M120.408,264h39.768
			c-0.142,26.013,6.076,51.667,18.112,74.728C146.135,327.152,123.576,298.026,120.408,264z M208,344
			c-14.296,0-30.168-33.712-31.832-80h63.664C238.168,310.288,222.296,344,208,344z M237.712,338.728
			c12.036-23.061,18.254-48.715,18.112-74.728h39.768C292.424,298.026,269.865,327.152,237.712,338.728z"/>
	</g>
</g>
<g>
	<g>
		<path d="M279.76,94.064l-8-32c-0.889-3.563-4.088-6.063-7.76-6.064h-75.72l-13.6-20.44c-1.489-2.232-3.997-3.568-6.68-3.56h-24
			c-4.418,0-8,3.582-8,8v56c0,4.418,3.582,8,8,8h21.752l-5.512,22.064c-1.069,4.287,1.539,8.629,5.826,9.698
			C166.699,135.92,167.348,136,168,136h24c2.122,0,4.156-0.844,5.656-2.344L227.312,104H272c4.418-0.001,7.999-3.584,7.998-8.002
			C279.998,95.346,279.918,94.696,279.76,94.064z M224,88c-2.122,0-4.156,0.844-5.656,2.344L188.688,120h-10.4l5.512-22.064
			c1.069-4.287-1.539-8.629-5.826-9.698c-0.646-0.161-1.309-0.241-1.974-0.238h-24V48h11.72l13.6,20.44
			c1.489,2.232,3.997,3.568,6.68,3.56h73.752l4,16H224z"/>
	</g>
</g>
<g>
	<g>
		<path d="M256,376h-96c-4.418,0-8,3.582-8,8s3.582,8,8,8h96c4.418,0,8-3.582,8-8S260.418,376,256,376z"/>
	</g>
</g>
<g>
	<g>
		<path d="M256,408h-96c-4.418,0-8,3.582-8,8s3.582,8,8,8h96c4.418,0,8-3.582,8-8S260.418,408,256,408z"/>
	</g>
</g>
<g>
</g>
<g>
</g>
<g>
</g>
<g>
</g>
<g>
</g>
<g>
</g>
<g>
</g>
<g>
</g>
<g>
</g>
<g>
</g>
<g>
</g>
<g>
</g>
<g>
</g>
<g>
</g>
<g>
</g>
</svg>
