<?xml version="1.0" encoding="iso-8859-1"?>
<!-- Generator: Adobe Illustrator 19.0.0, SVG Export Plug-In . SVG Version: 6.00 Build 0)  -->
<svg version="1.1" id="Capa_1" xmlns="http://www.w3.org/2000/svg" xmlns:xlink="http://www.w3.org/1999/xlink" x="0px" y="0px"
	 viewBox="0 0 496 496" style="enable-background:new 0 0 496 496;" xml:space="preserve">
<g>
	<g>
		<path d="M488,56H8c-4.418,0-8,3.582-8,8v320c0,4.418,3.582,8,8,8h169.056l-23.712,35.56c-2.452,3.675-1.461,8.643,2.215,11.095
			c1.315,0.877,2.86,1.345,4.441,1.345h160c4.418,0.001,8.001-3.581,8.001-7.999c0-1.581-0.468-3.126-1.345-4.441L302.944,392H488
			c4.418,0,8-3.582,8-8V64C496,59.582,492.418,56,488,56z M305.056,424H174.944l21.336-32h87.44L305.056,424z M480,376H16v-32h464
			V376z M480,328H16V72h464V328z"/>
	</g>
</g>
<g>
	<g>
		<path d="M264,104H56c-4.418,0.003-7.997,3.587-7.994,8.006c0.001,0.931,0.164,1.855,0.482,2.73l32,88
			c1.15,3.159,4.151,5.262,7.512,5.264h120v16H64c-4.418,0-8,3.582-8,8s3.582,8,8,8h11.056
			c-13.362,11.567-14.817,31.776-3.25,45.138c11.567,13.362,31.776,14.817,45.138,3.25c13.362-11.567,14.817-31.776,3.25-45.138
			c-1.004-1.16-2.09-2.246-3.25-3.25h62.112c-13.361,11.568-14.814,31.777-3.246,45.138c11.568,13.361,31.777,14.814,45.138,3.246
			s14.814-31.777,3.246-45.138c-1.355-1.565-2.859-2.995-4.49-4.27c2.618-1.345,4.273-4.033,4.296-6.976V120h32v24
			c0,4.418,3.582,8,8,8s8-3.582,8-8v-32C272,107.582,268.418,104,264,104z M96,280c-8.837,0-16-7.163-16-16s7.163-16,16-16
			s16,7.163,16,16S104.837,280,96,280z M93.6,192l-26.176-72H208v16H104c-4.418,0-8,3.582-8,8s3.582,8,8,8h104v40H93.6z M200,280
			c-8.837,0-16-7.163-16-16s7.163-16,16-16s16,7.163,16,16S208.837,280,200,280z"/>
	</g>
</g>
<g>
	<g>
		<path d="M440,96H328c-4.418,0-8,3.582-8,8v48c0,4.418,3.582,8,8,8h112c4.418,0,8-3.582,8-8v-48C448,99.582,444.418,96,440,96z
			 M432,144h-96v-32h96V144z"/>
	</g>
</g>
<g>
	<g>
		<rect x="272" y="256" width="16" height="16"/>
	</g>
</g>
<g>
	<g>
		<rect x="304" y="256" width="48" height="16"/>
	</g>
</g>
<g>
	<g>
		<rect x="272" y="224" width="80" height="16"/>
	</g>
</g>
<g>
	<g>
		<rect x="272" y="192" width="16" height="16"/>
	</g>
</g>
<g>
	<g>
		<rect x="304" y="192" width="48" height="16"/>
	</g>
</g>
<g>
	<g>
		<path d="M440,240h-40v-16h40c4.418,0,8-3.582,8-8s-3.582-8-8-8h-16v-8c0-4.418-3.582-8-8-8s-8,3.582-8,8v8h-16
			c-4.418,0-8,3.582-8,8v32c0,4.418,3.582,8,8,8h40v16h-40c-4.418,0-8,3.582-8,8s3.582,8,8,8h16v8c0,4.418,3.582,8,8,8s8-3.582,8-8
			v-8h16c4.418,0,8-3.582,8-8v-32C448,243.582,444.418,240,440,240z"/>
	</g>
</g>
<g>
</g>
<g>
</g>
<g>
</g>
<g>
</g>
<g>
</g>
<g>
</g>
<g>
</g>
<g>
</g>
<g>
</g>
<g>
</g>
<g>
</g>
<g>
</g>
<g>
</g>
<g>
</g>
<g>
</g>
</svg>
