<?xml version="1.0" encoding="iso-8859-1"?>
<!-- Generator: Adobe Illustrator 19.0.0, SVG Export Plug-In . SVG Version: 6.00 Build 0)  -->
<svg version="1.1" id="Capa_1" xmlns="http://www.w3.org/2000/svg" xmlns:xlink="http://www.w3.org/1999/xlink" x="0px" y="0px"
	 viewBox="0 0 480 480" style="enable-background:new 0 0 480 480;" xml:space="preserve">
<g>
	<g>
		<path d="M440,255.605v-39.6h24c4.418,0,8-3.582,8-8v-48c0-4.418-3.582-8-8-8h-24c-0.035-30.913-25.087-55.965-56-56
			c-3.793,0.036-7.024,2.763-7.696,6.496c-9.66-9.076-24.849-8.602-33.925,1.059c-9.076,9.66-8.602,24.849,1.059,33.925
			c9.121,8.569,23.295,8.691,32.562,0.281v26.928l-29.656,29.656c-1.5,1.5-2.344,3.534-2.344,5.656v64h-80v-48
			c-0.001-2.374-1.056-4.625-2.88-6.144l-31.024-25.856H256c4.418,0,8-3.582,8-8v-16c-0.026-22.08-17.92-39.974-40-40H112
			c-22.08,0.026-39.974,17.92-40,40v16c0,4.418,3.582,8,8,8h25.904L74.88,209.861c-1.824,1.519-2.879,3.77-2.88,6.144v104
			c0,4.418,3.582,8,8,8h24.552c4.39,35.041,36.356,59.889,71.397,55.499c29.013-3.635,51.864-26.486,55.499-55.499h105.104
			c4.39,35.041,36.356,59.889,71.397,55.499c29.013-3.635,51.864-26.486,55.499-55.499H472c4.418,0,8-3.582,8-8
			C479.963,292.689,464.47,267.746,440,255.605z M440,168.005h16v32h-16V168.005z M360,128.005c-4.418,0-8-3.582-8-8s3.582-8,8-8
			s8,3.582,8,8S364.418,128.005,360,128.005z M176,136.005h48c13.255,0,24,10.745,24,24v8h-72V136.005z M88,168.005v-8
			c0-13.255,10.745-24,24-24h48v32H88z M168,368.005c-23.397-0.043-43.361-16.934-47.28-40h16.416
			c4.339,17.046,21.674,27.347,38.719,23.008c11.304-2.877,20.131-11.704,23.009-23.008h16.416
			C211.361,351.072,191.397,367.962,168,368.005z M154.224,328.005h27.552c-4.345,7.608-14.035,10.254-21.643,5.909
			C157.671,332.508,155.63,330.468,154.224,328.005z M248,312.005H88v-92.256l42.896-35.744h74.208L248,219.749V312.005z
			 M320.472,312.005H264v-32h68.176C325.751,289.572,321.736,300.551,320.472,312.005z M392,112.805
			c18.613,3.825,31.979,20.198,32,39.2v8h-32V112.805z M360,203.317l27.312-27.312H424v73.856c-5.247-1.217-10.614-1.84-16-1.856
			h-16c-11.112,0.011-22.069,2.613-32,7.6V203.317z M400,368.005c-23.397-0.043-43.361-16.934-47.28-40h16.416
			c4.339,17.046,21.674,27.347,38.719,23.008c11.304-2.877,20.131-11.704,23.009-23.008h16.416
			C443.361,351.072,423.397,367.962,400,368.005z M386.224,328.005h27.552c-4.345,7.608-14.035,10.254-21.643,5.909
			C389.671,332.508,387.63,330.468,386.224,328.005z M336.568,312.005c4.013-27.535,27.606-47.965,55.432-48h16
			c27.826,0.035,51.419,20.465,55.432,48H336.568z"/>
	</g>
</g>
<g>
	<g>
		<rect y="304.005" width="56" height="16"/>
	</g>
</g>
<g>
	<g>
		<rect x="16" y="272.005" width="40" height="16"/>
	</g>
</g>
<g>
	<g>
		<rect x="144" y="224.005" width="48" height="16"/>
	</g>
</g>
<g>
	<g>
		<rect x="144" y="264.005" width="48" height="16"/>
	</g>
</g>
<g>
</g>
<g>
</g>
<g>
</g>
<g>
</g>
<g>
</g>
<g>
</g>
<g>
</g>
<g>
</g>
<g>
</g>
<g>
</g>
<g>
</g>
<g>
</g>
<g>
</g>
<g>
</g>
<g>
</g>
</svg>
