<?xml version="1.0" encoding="iso-8859-1"?>
<!-- Generator: Adobe Illustrator 19.0.0, SVG Export Plug-In . SVG Version: 6.00 Build 0)  -->
<svg version="1.1" id="Capa_1" xmlns="http://www.w3.org/2000/svg" xmlns:xlink="http://www.w3.org/1999/xlink" x="0px" y="0px"
	 viewBox="0 0 480 480" style="enable-background:new 0 0 480 480;" xml:space="preserve">
<g>
	<g>
		<path d="M473.944,64.241l-128-32c-1.415-0.36-2.902-0.321-4.296,0.112L240,63.633l-101.648-31.28
			c-1.394-0.433-2.881-0.471-4.296-0.112l-128,32C2.497,65.133,0,68.332,0,72.001v368c0,4.418,3.582,8,8,8
			c0.655,0,1.308-0.081,1.944-0.24l125.832-31.456l101.872,31.344c1.533,0.471,3.171,0.471,4.704,0l101.872-31.344l125.832,31.456
			c4.286,1.074,8.631-1.53,9.704-5.816c0.159-0.636,0.24-1.289,0.24-1.944v-368C480,68.332,477.503,65.133,473.944,64.241z
			 M464,429.753l-118.056-29.512c-1.415-0.36-2.902-0.321-4.296,0.112L240,431.633l-101.648-31.28
			c-0.763-0.232-1.555-0.351-2.352-0.352c-0.655,0-1.308,0.081-1.944,0.24L16,429.753V78.249l119.776-29.944l101.872,31.344
			c1.533,0.471,3.171,0.471,4.704,0l101.872-31.344L464,78.249V429.753z"/>
	</g>
</g>
<g>
	<g>
		<path d="M256,152.001h-32c-4.418,0-8,3.582-8,8v72c0,4.418,3.582,8,8,8s8-3.582,8-8v-64h24c4.418,0,8-3.582,8-8
			S260.418,152.001,256,152.001z"/>
	</g>
</g>
<g>
	<g>
		<path d="M360,232.001c-4.418,0-8,3.582-8,8v32c0,4.418,3.582,8,8,8s8-3.582,8-8v-32C368,235.583,364.418,232.001,360,232.001z"/>
	</g>
</g>
<g>
	<g>
		<path d="M111.496,149.193l-24-64c-1.543-4.14-6.151-6.245-10.291-4.701c-2.175,0.811-3.891,2.526-4.701,4.701l-24,64
			c-1.551,4.137,0.546,8.748,4.683,10.299c0.899,0.337,1.852,0.51,2.813,0.509h16v24c0,4.418,3.582,8,8,8s8-3.582,8-8v-24h16
			c4.418,0.003,8.002-3.577,8.005-7.995C112.006,151.046,111.833,150.093,111.496,149.193z M67.544,144.001L80,110.785
			l12.456,33.216H67.544z"/>
	</g>
</g>
<g>
	<g>
		<path d="M96,200.001c-4.418,0-8,3.582-8,8v17.192l-17.752-22.192c-2.759-3.451-7.794-4.011-11.244-1.252
			c-1.9,1.519-3.005,3.82-3.004,6.252v40c0,4.418,3.582,8,8,8s8-3.582,8-8v-17.192l17.752,22.192c1.519,1.897,3.818,3.001,6.248,3
			c0.901-0.003,1.796-0.154,2.648-0.448c3.207-1.125,5.353-4.153,5.352-7.552v-40C104,203.583,100.418,200.001,96,200.001z"/>
	</g>
</g>
<g>
	<g>
		<rect x="40" y="288.001" width="16" height="16"/>
	</g>
</g>
<g>
	<g>
		<rect x="72" y="288.001" width="32" height="16"/>
	</g>
</g>
<g>
	<g>
		<rect x="40" y="320.001" width="64" height="16"/>
	</g>
</g>
<g>
	<g>
		<rect x="136" y="104.001" width="16" height="16"/>
	</g>
</g>
<g>
	<g>
		<rect x="168" y="104.001" width="32" height="16"/>
	</g>
</g>
<g>
	<g>
		<rect x="136" y="136.001" width="64" height="16"/>
	</g>
</g>
<g>
	<g>
		<rect x="40" y="352.001" width="16" height="16"/>
	</g>
</g>
<g>
	<g>
		<rect x="72" y="352.001" width="32" height="16"/>
	</g>
</g>
<g>
	<g>
		<path d="M294.4,275.201l-24-32c-2.307-3.108-6.508-4.119-9.976-2.4l-29.36,14.68l-29.744-7.408l-48-8
			c-4.113-0.688-8.065,1.899-9.08,5.944l-8,32c-0.163,0.649-0.243,1.315-0.24,1.984v40c0,4.418,3.582,8,8,8h42.232l5.128,15.384
			l-6.52,13.04c-0.853,1.709-1.065,3.667-0.6,5.52l8,32c1.075,4.286,5.42,6.888,9.706,5.813c0.708-0.178,1.388-0.451,2.022-0.813
			l55.608-31.744l32-16c2.725-1.362,4.441-4.153,4.424-7.2v-64C296,278.27,295.439,276.586,294.4,275.201z M280,339.057l-28,14
			l-46.8,26.76l-4.72-18.888l6.68-13.352c0.947-1.897,1.103-4.092,0.432-6.104l-8-24c-1.089-3.268-4.147-5.473-7.592-5.472h-40
			v-31.016l5.976-23.88l40.08,6.656l32,8c1.853,0.454,3.807,0.242,5.52-0.6l26.024-13.016l18.4,24.52V339.057z"/>
	</g>
</g>
<g>
	<g>
		<path d="M445.12,129.857l-48-40c-1.437-1.198-3.249-1.855-5.12-1.856h-72c-1.452,0-2.876,0.396-4.12,1.144l-40,24
			c-2.712,1.631-4.208,4.707-3.816,7.848l8,64c0.33,2.656,1.966,4.971,4.36,6.168l48,24c1.111,0.554,2.335,0.841,3.576,0.84h88
			c3.749-0.001,6.995-2.604,7.808-6.264l16-72C448.457,134.814,447.42,131.774,445.12,129.857z M417.6,200.001h-79.712l-42.48-21.24
			l-6.824-54.584l33.632-20.176h66.888l42.032,35.024L417.6,200.001z"/>
	</g>
</g>
<g>
	<g>
		<path d="M447.8,366.089l-8.04-32.032c-0.892-3.559-4.091-6.056-7.76-6.056h-26.584l-13.984-34.976
			c-1.641-4.102-6.296-6.098-10.398-4.458c-0.207,0.083-0.41,0.174-0.609,0.274l-32,16c-2.712,1.355-4.425,4.128-4.424,7.16v56
			c-0.017,3.047,1.699,5.838,4.424,7.2l32,16c1.115,0.536,2.339,0.81,3.576,0.8c0.744,0,1.485-0.105,2.2-0.312l56-16
			C446.348,374.52,448.824,370.275,447.8,366.089z M384.8,375.457l-24.8-12.4v-46.112l19.8-9.904l12.8,31.936
			c1.213,3.026,4.14,5.013,7.4,5.024h25.752l4.608,18.4L384.8,375.457z"/>
	</g>
</g>
<g>
</g>
<g>
</g>
<g>
</g>
<g>
</g>
<g>
</g>
<g>
</g>
<g>
</g>
<g>
</g>
<g>
</g>
<g>
</g>
<g>
</g>
<g>
</g>
<g>
</g>
<g>
</g>
<g>
</g>
</svg>
