<?xml version="1.0" encoding="iso-8859-1"?>
<!-- Generator: Adobe Illustrator 19.0.0, SVG Export Plug-In . SVG Version: 6.00 Build 0)  -->
<svg version="1.1" id="Capa_1" xmlns="http://www.w3.org/2000/svg" xmlns:xlink="http://www.w3.org/1999/xlink" x="0px" y="0px"
	 viewBox="0 0 480 480" style="enable-background:new 0 0 480 480;" xml:space="preserve">
<g>
	<g>
		<path d="M472,340h-24V76c0-4.418-3.582-8-8-8H40c-4.418,0-8,3.582-8,8v264H8c-4.418,0-8,3.582-8,8v24
			c0.026,22.08,17.92,39.974,40,40h400c22.08-0.026,39.974-17.92,40-40v-24C480,343.582,476.418,340,472,340z M48,84h384v256H48V84z
			 M275.056,356l-8,16h-54.112l-8-16H275.056z M464,372c0,13.255-10.745,24-24,24H40c-13.255,0-24-10.745-24-24v-16h171.056
			l13.784,27.576c1.355,2.712,4.128,4.425,7.16,4.424h64c3.047,0.017,5.838-1.699,7.2-4.424L292.944,356H464V372z"/>
	</g>
</g>
<g>
	<g>
		<path d="M408,100H72c-4.418,0-8,3.582-8,8v208c0,4.418,3.582,8,8,8h336c4.418,0,8-3.582,8-8V108C416,103.582,412.418,100,408,100z
			 M400,308H80V116h252.688l-26.344,26.344c-3.178,3.07-3.266,8.134-0.196,11.312c3.07,3.178,8.134,3.266,11.312,0.196
			c0.067-0.064,0.132-0.13,0.196-0.196L355.312,116h25.376l-58.344,58.344c-3.178,3.07-3.266,8.134-0.196,11.312
			c3.07,3.178,8.134,3.266,11.312,0.196c0.067-0.064,0.132-0.13,0.196-0.196L400,119.312V308z"/>
	</g>
</g>
<g>
	<g>
		<path d="M80,372H56c-4.418,0-8,3.582-8,8s3.582,8,8,8h24c4.418,0,8-3.582,8-8S84.418,372,80,372z"/>
	</g>
</g>
<g>
	<g>
		<path d="M168,164c-13.255,0-24-10.745-24-24c0-4.418-3.582-8-8-8s-8,3.582-8,8c0,13.255-10.745,24-24,24c-4.418,0-8,3.582-8,8
			s3.582,8,8,8c13.255,0,24,10.745,24,24c0,4.418,3.582,8,8,8s8-3.582,8-8c0-13.255,10.745-24,24-24c4.418,0,8-3.582,8-8
			S172.418,164,168,164z M136,180c-2.276-3.031-4.969-5.724-8-8c3.031-2.276,5.724-4.969,8-8c2.276,3.031,4.969,5.724,8,8
			C140.969,174.276,138.276,176.969,136,180z"/>
	</g>
</g>
<g>
</g>
<g>
</g>
<g>
</g>
<g>
</g>
<g>
</g>
<g>
</g>
<g>
</g>
<g>
</g>
<g>
</g>
<g>
</g>
<g>
</g>
<g>
</g>
<g>
</g>
<g>
</g>
<g>
</g>
</svg>
