<?xml version="1.0" encoding="iso-8859-1"?>
<!-- Generator: Adobe Illustrator 19.0.0, SVG Export Plug-In . SVG Version: 6.00 Build 0)  -->
<svg version="1.1" id="Capa_1" xmlns="http://www.w3.org/2000/svg" xmlns:xlink="http://www.w3.org/1999/xlink" x="0px" y="0px"
	 viewBox="0 0 480 480" style="enable-background:new 0 0 480 480;" xml:space="preserve">
<g>
	<g>
		<path d="M368,40c-30.913,0.035-55.965,25.087-56,56c0,30.928,25.072,56,56,56c30.928,0,56-25.072,56-56
			C424,65.072,398.928,40,368,40z M368,136c-22.091,0-40-17.909-40-40s17.909-40,40-40c22.08,0.026,39.974,17.92,40,40
			C408,118.091,390.091,136,368,136z"/>
	</g>
</g>
<g>
	<g>
		<path d="M368,0c-53.019,0-96,42.981-96,96c0,21.208,73.936,179.824,88.8,211.4c1.88,3.999,6.645,5.716,10.643,3.837
			c1.687-0.793,3.044-2.15,3.837-3.837C390.064,275.824,464,117.208,464,96C464,42.981,421.019,0,368,0z M368,285.104
			C328.136,199.464,288.216,107.92,288,96c0-44.183,35.817-80,80-80c44.183,0,80,35.817,80,80
			C447.776,107.944,407.856,199.472,368,285.104z"/>
	</g>
</g>
<g>
	<g>
		<path d="M368,328c-22.808,0-40,10.32-40,24s17.192,24,40,24c22.808,0,40-10.32,40-24S390.808,328,368,328z M368,360
			c-15.488,0-24-6.008-24-8s8.512-8,24-8c15.488,0,24,6.008,24,8S383.488,360,368,360z"/>
	</g>
</g>
<g>
	<g>
		<path d="M88.216,29.176c-23.766,0-43.032,19.266-43.032,43.032c0,0.003,0,0.005,0,0.008c0.022,23.755,19.276,43.006,43.032,43.024
			c23.766,0,43.032-19.266,43.032-43.032S111.982,29.176,88.216,29.176z M88.216,99.248c-14.929,0-27.032-12.103-27.032-27.032
			c0.013-14.924,12.108-27.019,27.032-27.032c14.929,0,27.032,12.103,27.032,27.032S103.145,99.248,88.216,99.248z"/>
	</g>
</g>
<g>
	<g>
		<path d="M88.18,0.036C48.324,0.056,16.02,32.361,16,72.216c0,15.536,49.728,122.704,64.976,155.2
			c1.88,3.999,6.645,5.716,10.643,3.837c1.687-0.793,3.044-2.15,3.837-3.837c15.2-32.48,64.976-139.648,64.976-155.2
			C160.412,32.332,128.063,0.016,88.18,0.036z M88.216,205.08C59.912,144.064,32.584,81.032,32,72.216
			C32.035,41.183,57.183,16.035,88.216,16c31.01,0.031,56.15,25.143,56.216,56.152C143.784,81.176,116.488,144.152,88.216,205.08z"
			/>
	</g>
</g>
<g>
	<g>
		<path d="M88,248c-22.808,0-40,10.32-40,24s17.192,24,40,24s40-10.32,40-24S110.808,248,88,248z M88,280c-15.488,0-24-6.008-24-8
			s8.512-8,24-8s24,6.008,24,8S103.488,280,88,280z"/>
	</g>
</g>
<g>
	<g>
		<path d="M152,432c-22.808,0-40,10.32-40,24s17.192,24,40,24s40-10.32,40-24S174.808,432,152,432z M152,464
			c-15.488,0-24-6.008-24-8s8.512-8,24-8c15.488,0,24,6.008,24,8S167.488,464,152,464z"/>
	</g>
</g>
<g>
	<g>
		<path d="M143.608,413.512l-32-96c-1.005-3.1-3.79-5.28-7.04-5.512c-3.222-0.194-6.255,1.536-7.728,4.408l-16,32
			c-2.001,3.939-0.429,8.755,3.511,10.755c0.024,0.012,0.049,0.025,0.073,0.037c3.952,1.976,8.757,0.374,10.733-3.578
			c0.001-0.002,0.002-0.004,0.003-0.006l7.36-14.728l25.888,77.68c1.396,4.197,5.931,6.468,10.128,5.072
			S145.004,417.709,143.608,413.512z"/>
	</g>
</g>
<g>
	<g>
		<path d="M319.84,326.4l-8-40c-0.717-4.36-4.832-7.313-9.192-6.596s-7.313,4.832-6.596,9.192c0.03,0.181,0.066,0.361,0.108,0.54
			l5.248,26.248l-146.76-51.336c-4.171-1.462-8.738,0.733-10.2,4.904s0.733,8.738,4.904,10.2l160,56
			c0.852,0.294,1.747,0.445,2.648,0.448c4.418,0.001,8.001-3.58,8.002-7.998C320.002,327.464,319.948,326.927,319.84,326.4z"/>
	</g>
</g>
<g>
	<g>
		<path d="M334.686,379.962c-2.206-3.657-6.896-4.936-10.654-2.906l-96.736,55.28l4.544-22.736c1.015-4.3-1.648-8.609-5.948-9.624
			c-4.3-1.015-8.609,1.648-9.624,5.948c-0.042,0.179-0.078,0.359-0.108,0.54l-8,40c-0.6,3.064,0.637,6.197,3.168,8.024
			c2.542,1.831,5.919,2.009,8.64,0.456l112-64C335.751,388.662,336.968,383.745,334.686,379.962z"/>
	</g>
</g>
<g>
	<g>
		<path d="M255.448,189.264c-0.088-0.232-0.184-0.44-0.288-0.664c-0.084-0.233-0.183-0.46-0.296-0.68l-24-40
			c-2.595-3.786-7.769-4.752-11.555-2.157c-0.846,0.58-1.577,1.311-2.157,2.157l-24,40c-0.114,0.22-0.212,0.447-0.296,0.68
			c-0.104,0.224-0.2,0.44-0.288,0.672c-0.35,0.868-0.543,1.792-0.568,2.728v48c0,4.418,3.582,8,8,8h48c4.418,0,8-3.582,8-8v-48
			C255.979,191.063,255.792,190.136,255.448,189.264z M224,167.552L233.872,184h-19.744L224,167.552z M240,232h-32v-32h32V232z"/>
	</g>
</g>
<g>
</g>
<g>
</g>
<g>
</g>
<g>
</g>
<g>
</g>
<g>
</g>
<g>
</g>
<g>
</g>
<g>
</g>
<g>
</g>
<g>
</g>
<g>
</g>
<g>
</g>
<g>
</g>
<g>
</g>
</svg>
