<?xml version="1.0" encoding="iso-8859-1"?>
<!-- Generator: Adobe Illustrator 19.0.0, SVG Export Plug-In . SVG Version: 6.00 Build 0)  -->
<svg version="1.1" id="Capa_1" xmlns="http://www.w3.org/2000/svg" xmlns:xlink="http://www.w3.org/1999/xlink" x="0px" y="0px"
	 viewBox="0 0 480 480" style="enable-background:new 0 0 480 480;" xml:space="preserve">
<g>
	<g>
		<path d="M400,168V8c0-4.418-3.582-8-8-8H88c-4.418,0-8,3.582-8,8v160c0.075,66.243,53.757,119.925,120,120v128h-88
			c-17.673,0-32,14.327-32,32c0,17.673,14.327,32,32,32h256c17.673,0,32-14.327,32-32c0-17.673-14.327-32-32-32h-88V288
			C346.243,287.925,399.925,234.243,400,168z M324.688,16l-42.344,42.344c-3.124,3.125-3.123,8.19,0.002,11.314
			C283.846,71.157,285.879,72,288,72h36.688l-58.344,58.344c-3.124,3.125-3.123,8.19,0.002,11.314
			c1.5,1.499,3.534,2.342,5.654,2.342h36.688l-57.424,57.424l-41.272,20.64l41.512-82.464c1.988-3.946,0.401-8.756-3.544-10.744
			c-1.117-0.563-2.349-0.856-3.6-0.856h-25.016l43.128-59.296c2.598-3.574,1.807-8.577-1.767-11.175
			C259.338,56.535,257.691,56,256,56h-25.016l29.088-40H324.688z M368,432c8.837,0,16,7.163,16,16s-7.163,16-16,16H112
			c-8.837,0-16-7.163-16-16s7.163-16,16-16H368z M216,416V288h48v128H216z M200,272c-57.41-0.066-103.934-46.59-104-104V16h144.288
			L208.8,59.296c-2.598,3.574-1.807,8.577,1.767,11.175c1.367,0.994,3.015,1.529,4.705,1.529h25.016l-43.12,59.296
			c-2.598,3.574-1.807,8.577,1.767,11.175c1.367,0.994,3.015,1.529,4.705,1.529h27.736l-46.52,92.4
			c-1.991,3.944-0.407,8.756,3.537,10.747c2.258,1.14,4.921,1.145,7.183,0.013l64-32c0.77-0.386,1.472-0.894,2.08-1.504l72-72
			c3.124-3.125,3.123-8.19-0.002-11.314c-1.5-1.499-3.534-2.342-5.654-2.342h-36.688l58.344-58.344
			c3.124-3.125,3.123-8.19-0.002-11.314C348.154,56.843,346.121,56,344,56h-36.688l40-40H384v152
			c-0.066,57.41-46.59,103.934-104,104H200z"/>
	</g>
</g>
<g>
	<g>
		<path d="M120,32c-4.418,0-8,3.582-8,8v16c0,4.418,3.582,8,8,8s8-3.582,8-8V40C128,35.582,124.418,32,120,32z"/>
	</g>
</g>
<g>
	<g>
		<path d="M120,80c-4.418,0-8,3.582-8,8v32c0,4.418,3.582,8,8,8s8-3.582,8-8V88C128,83.582,124.418,80,120,80z"/>
	</g>
</g>
<g>
</g>
<g>
</g>
<g>
</g>
<g>
</g>
<g>
</g>
<g>
</g>
<g>
</g>
<g>
</g>
<g>
</g>
<g>
</g>
<g>
</g>
<g>
</g>
<g>
</g>
<g>
</g>
<g>
</g>
</svg>
