<?xml version="1.0" encoding="iso-8859-1"?>
<!-- Generator: Adobe Illustrator 19.0.0, SVG Export Plug-In . SVG Version: 6.00 Build 0)  -->
<svg version="1.1" id="Capa_1" xmlns="http://www.w3.org/2000/svg" xmlns:xlink="http://www.w3.org/1999/xlink" x="0px" y="0px"
	 viewBox="0 0 480 480" style="enable-background:new 0 0 480 480;" xml:space="preserve">
<g>
	<g>
		<path d="M472,120H316l-45.6-60.8c-1.511-2.014-3.882-3.2-6.4-3.2H8c-4.418,0-8,3.582-8,8v336.8C0,413.613,10.387,424,23.2,424
			h433.6c12.813,0,23.2-10.387,23.2-23.2V128C480,123.582,476.418,120,472,120z M260,72l36,48h-76l-36-48H260z M16,72h148l36,48H16
			V72z M464,400.8c0,3.976-3.224,7.2-7.2,7.2h0H23.2c-3.976,0-7.2-3.224-7.2-7.2V136h448V400.8z"/>
	</g>
</g>
<g>
	<g>
		<rect x="352" y="360" width="16" height="16"/>
	</g>
</g>
<g>
	<g>
		<rect x="384" y="360" width="48" height="16"/>
	</g>
</g>
<g>
	<g>
		<rect x="352" y="328" width="80" height="16"/>
	</g>
</g>
<g>
	<g>
		<rect x="352" y="296" width="16" height="16"/>
	</g>
</g>
<g>
	<g>
		<rect x="384" y="296" width="48" height="16"/>
	</g>
</g>
<g>
</g>
<g>
</g>
<g>
</g>
<g>
</g>
<g>
</g>
<g>
</g>
<g>
</g>
<g>
</g>
<g>
</g>
<g>
</g>
<g>
</g>
<g>
</g>
<g>
</g>
<g>
</g>
<g>
</g>
</svg>
