<?xml version="1.0" encoding="iso-8859-1"?>
<!-- Generator: Adobe Illustrator 19.0.0, SVG Export Plug-In . SVG Version: 6.00 Build 0)  -->
<svg version="1.1" id="Capa_1" xmlns="http://www.w3.org/2000/svg" xmlns:xlink="http://www.w3.org/1999/xlink" x="0px" y="0px"
	 viewBox="0 0 480 480" style="enable-background:new 0 0 480 480;" xml:space="preserve">
<g>
	<g>
		<path d="M479.56,101.376c0-0.096-0.104-0.168-0.144-0.264c-0.119-0.261-0.252-0.514-0.4-0.76c-0.301-0.591-0.675-1.142-1.112-1.64
			c-0.213-0.235-0.44-0.457-0.68-0.664c-0.49-0.42-1.027-0.783-1.6-1.08c-0.272-0.136-0.512-0.288-0.8-0.4
			c-0.899-0.359-1.856-0.551-2.824-0.568h-24V56c0-4.418-3.582-8-8-8H8c-4.418,0-8,3.582-8,8v320c0,4.418,3.582,8,8,8h145.056
			l-23.712,35.56c-2.452,3.675-1.461,8.643,2.215,11.095c1.315,0.877,2.86,1.345,4.441,1.345h160
			c4.418,0.001,8.001-3.581,8.001-7.999c0-1.581-0.468-3.126-1.345-4.441L278.944,384H440c4.418,0,8-3.582,8-8v-88h24
			c4.418,0,8-3.582,8-8V104v-0.072C479.992,103.059,479.843,102.197,479.56,101.376z M448.96,112L320,213.808L191.04,112H448.96z
			 M281.048,416H150.952l21.328-32h87.44L281.048,416z M432,368H16v-32h416V368z M432,320H16V64h416v32H168
			c-0.968,0.017-1.925,0.209-2.824,0.568c-0.288,0.112-0.528,0.264-0.8,0.4c-0.573,0.297-1.11,0.66-1.6,1.08
			c-0.24,0.207-0.467,0.429-0.68,0.664c-0.437,0.498-0.811,1.049-1.112,1.64c-0.148,0.246-0.281,0.499-0.4,0.76
			c0,0.096-0.112,0.168-0.144,0.264c-0.278,0.822-0.421,1.684-0.424,2.552L160,104v176c0,4.418,3.582,8,8,8h264V320z M464,272H176
			V120.512L315.04,230.28c2.908,2.298,7.012,2.298,9.92,0L464,120.512V272z"/>
	</g>
</g>
<g>
	<g>
		<path d="M136,104H56c-4.418,0-8,3.582-8,8s3.582,8,8,8h80c4.418,0,8-3.582,8-8S140.418,104,136,104z"/>
	</g>
</g>
<g>
	<g>
		<path d="M136,136H88c-4.418,0-8,3.582-8,8s3.582,8,8,8h48c4.418,0,8-3.582,8-8S140.418,136,136,136z"/>
	</g>
</g>
<g>
	<g>
		<path d="M152,240c-13.255,0-24-10.745-24-24c0-4.418-3.582-8-8-8s-8,3.582-8,8c0,13.255-10.745,24-24,24c-4.418,0-8,3.582-8,8
			s3.582,8,8,8c13.255,0,24,10.745,24,24c0,4.418,3.582,8,8,8s8-3.582,8-8c0-13.255,10.745-24,24-24c4.418,0,8-3.582,8-8
			S156.418,240,152,240z M120,256c-2.278-3.029-4.971-5.722-8-8c3.029-2.278,5.722-4.971,8-8c2.278,3.029,4.971,5.722,8,8
			C124.971,250.278,122.278,252.971,120,256z"/>
	</g>
</g>
<g>
</g>
<g>
</g>
<g>
</g>
<g>
</g>
<g>
</g>
<g>
</g>
<g>
</g>
<g>
</g>
<g>
</g>
<g>
</g>
<g>
</g>
<g>
</g>
<g>
</g>
<g>
</g>
<g>
</g>
</svg>
