<?xml version="1.0" encoding="iso-8859-1"?>
<!-- Generator: Adobe Illustrator 19.0.0, SVG Export Plug-In . SVG Version: 6.00 Build 0)  -->
<svg version="1.1" id="Capa_1" xmlns="http://www.w3.org/2000/svg" xmlns:xlink="http://www.w3.org/1999/xlink" x="0px" y="0px"
	 viewBox="0 0 480 480" style="enable-background:new 0 0 480 480;" xml:space="preserve">
<g>
	<g>
		<path d="M456,46.768H312c-13.255,0-24,10.745-24,24s10.745,24,24,24h48v80h-48v-24c0-3.669-2.497-6.868-6.056-7.76l-64-16
			c-1.275-0.328-2.613-0.328-3.888,0l-64,16c-3.559,0.892-6.056,4.091-6.056,7.76v24h-48v-80h48c13.255,0,24-10.745,24-24
			s-10.745-24-24-24H24c-13.255,0-24,10.745-24,24s10.745,24,24,24h48v144c0,13.255,10.745,24,24,24s24-10.745,24-24v-16h16v72
			c0,4.418,3.582,8,8,8h40v32c0,4.418,3.582,8,8,8h96c4.418,0,8-3.582,8-8v-32h40c4.418,0,8-3.582,8-8v-72h16v16
			c0,13.255,10.745,24,24,24s24-10.745,24-24v-144h48c13.255,0,24-10.745,24-24S469.255,46.768,456,46.768z M104,238.768
			c0,4.418-3.582,8-8,8s-8-3.582-8-8v-16h16V238.768z M104,206.768H88v-16h16V206.768z M104,174.768H88v-80h16V174.768z M24,78.768
			c-4.418,0-8-3.582-8-8s3.582-8,8-8h144c4.418,0,8,3.582,8,8s-3.582,8-8,8H24z M136,206.768h-16v-16h16V206.768z M184,157.016
			l56-14l56,14v17.752H184V157.016z M280,326.768h-80v-64h80V326.768z M328,286.768h-32v-32c0-4.418-3.582-8-8-8h-96
			c-4.418,0-8,3.582-8,8v32h-32v-96h176V286.768z M360,206.768h-16v-16h16V206.768z M392,238.768c0,4.418-3.582,8-8,8s-8-3.582-8-8
			v-16h16V238.768z M392,206.768h-16v-16h16V206.768z M392,174.768h-16v-80h16V174.768z M456,78.768H312c-4.418,0-8-3.582-8-8
			s3.582-8,8-8h144c4.418,0,8,3.582,8,8S460.418,78.768,456,78.768z"/>
	</g>
</g>
<g>
	<g>
		<path d="M240,262.768c-17.673,0-32,14.327-32,32c0,17.673,14.327,32,32,32c17.673,0,32-14.327,32-32
			C272,277.095,257.673,262.768,240,262.768z M240,310.768c-8.837,0-16-7.163-16-16s7.163-16,16-16s16,7.163,16,16
			S248.837,310.768,240,310.768z"/>
	</g>
</g>
<g>
	<g>
		<path d="M192,206.768h-16c-4.418,0-8,3.582-8,8s3.582,8,8,8h16c4.418,0,8-3.582,8-8S196.418,206.768,192,206.768z"/>
	</g>
</g>
<g>
	<g>
		<path d="M304,206.768h-16c-4.418,0-8,3.582-8,8s3.582,8,8,8h16c4.418,0,8-3.582,8-8S308.418,206.768,304,206.768z"/>
	</g>
</g>
<g>
	<g>
		<path d="M285.46,369.112c-3.1-2.995-8.016-2.995-11.116,0c-18.969,18.964-49.719,18.964-68.688,0
			c-3.178-3.07-8.242-2.982-11.312,0.196c-2.994,3.1-2.994,8.015,0,11.116c25.215,25.215,66.097,25.215,91.312,0
			C288.726,377.246,288.638,372.182,285.46,369.112z"/>
	</g>
</g>
<g>
	<g>
		<path d="M309.46,393.112c-3.1-2.995-8.016-2.995-11.116,0c-32.245,32.169-84.443,32.169-116.688,0
			c-3.124-3.123-8.188-3.123-11.312,0c-3.123,3.124-3.123,8.188,0,11.312c38.495,38.411,100.818,38.411,139.312,0
			C312.726,401.246,312.638,396.182,309.46,393.112z"/>
	</g>
</g>
<g>
</g>
<g>
</g>
<g>
</g>
<g>
</g>
<g>
</g>
<g>
</g>
<g>
</g>
<g>
</g>
<g>
</g>
<g>
</g>
<g>
</g>
<g>
</g>
<g>
</g>
<g>
</g>
<g>
</g>
</svg>
