<?xml version="1.0" encoding="iso-8859-1"?>
<!-- Generator: Adobe Illustrator 19.0.0, SVG Export Plug-In . SVG Version: 6.00 Build 0)  -->
<svg version="1.1" id="Capa_1" xmlns="http://www.w3.org/2000/svg" xmlns:xlink="http://www.w3.org/1999/xlink" x="0px" y="0px"
	 viewBox="0 0 479.998 479.998" style="enable-background:new 0 0 479.998 479.998;" xml:space="preserve">
<g>
	<g>
		<path d="M433.056,192.07L320,176.998v-9c0-4.418-3.582-8-8-8H72c-4.418,0-8,3.582-8,8v24H8c-4.418,0-8,3.582-8,8s3.582,8,8,8h56
			v16H24c-4.418,0-8,3.582-8,8s3.582,8,8,8h40v136c0,4.418,3.582,8,8,8h8c0,22.091,17.909,40,40,40s40-17.909,40-40h184
			c0,22.091,17.909,40,40,40c22.091,0,40-17.909,40-40h8c4.418,0,8-3.582,8-8v-176C439.999,195.989,437.03,192.6,433.056,192.07z
			 M120,407.998c-13.255,0-24-10.745-24-24s10.745-24,24-24s24,10.745,24,24S133.255,407.998,120,407.998z M304,367.998h-16v-120
			c0-4.418-3.582-8-8-8s-8,3.582-8,8v120H156.608c-8.793-20.218-32.31-29.48-52.528-20.688
			c-9.265,4.029-16.658,11.422-20.688,20.688H80v-128h24c4.418,0,8-3.582,8-8s-3.582-8-8-8H80v-16h24c4.418,0,8-3.582,8-8
			s-3.582-8-8-8H80v-16h224V367.998z M384,407.998c-13.255,0-24-10.745-24-24s10.745-24,24-24s24,10.745,24,24
			S397.255,407.998,384,407.998z M424,287.998h-48v-16h48V287.998z M424,255.998h-56c-4.418,0-8,3.582-8,8v32c0,4.418,3.582,8,8,8
			h56v64h-3.392c-8.793-20.218-32.31-29.48-52.528-20.688c-9.265,4.029-16.658,11.422-20.688,20.688H320v-128h104V255.998z
			 M424,223.998H320v-30.856l104,13.864V223.998z"/>
	</g>
</g>
<g>
	<g>
		<circle cx="120" cy="383.998" r="16"/>
	</g>
</g>
<g>
	<g>
		<circle cx="384" cy="383.998" r="16"/>
	</g>
</g>
<g>
	<g>
		<path d="M477.656,98.342l-40-40c-3.125-3.124-8.19-3.123-11.314,0.002c-1.499,1.5-2.342,3.534-2.342,5.654v16h-96
			c-4.418,0-8,3.582-8,8v32c0,4.418,3.582,8,8,8h96v16c-0.001,3.235,1.947,6.153,4.936,7.392c0.971,0.405,2.012,0.611,3.064,0.608
			c2.122,0,4.156-0.844,5.656-2.344l40-40C480.779,106.53,480.779,101.466,477.656,98.342z M440,124.686v-4.688c0-4.418-3.582-8-8-8
			h-96v-16h96c4.418,0,8-3.582,8-8V83.31l20.688,20.688L440,124.686z"/>
	</g>
</g>
<g>
	<g>
		<path d="M296,79.998h-64c-4.418,0-8,3.582-8,8s3.582,8,8,8h64c4.418,0,8-3.582,8-8S300.418,79.998,296,79.998z"/>
	</g>
</g>
<g>
	<g>
		<path d="M296,111.998h-32c-4.418,0-8,3.582-8,8s3.582,8,8,8h32c4.418,0,8-3.582,8-8S300.418,111.998,296,111.998z"/>
	</g>
</g>
<g>
	<g>
		<path d="M280,191.998c-4.418,0-8,3.582-8,8v16c0,4.418,3.582,8,8,8s8-3.582,8-8v-16C288,195.58,284.418,191.998,280,191.998z"/>
	</g>
</g>
<g>
</g>
<g>
</g>
<g>
</g>
<g>
</g>
<g>
</g>
<g>
</g>
<g>
</g>
<g>
</g>
<g>
</g>
<g>
</g>
<g>
</g>
<g>
</g>
<g>
</g>
<g>
</g>
<g>
</g>
</svg>
