<?xml version="1.0" encoding="iso-8859-1"?>
<!-- Generator: Adobe Illustrator 19.0.0, SVG Export Plug-In . SVG Version: 6.00 Build 0)  -->
<svg version="1.1" id="Capa_1" xmlns="http://www.w3.org/2000/svg" xmlns:xlink="http://www.w3.org/1999/xlink" x="0px" y="0px"
	 viewBox="0 0 480 480" style="enable-background:new 0 0 480 480;" xml:space="preserve">
<g>
	<g>
		<path d="M148,128c-4.418,0-8,3.582-8,8v32c0,4.418,3.582,8,8,8s8-3.582,8-8v-32C156,131.582,152.418,128,148,128z"/>
	</g>
</g>
<g>
	<g>
		<path d="M212,128c-4.418,0-8,3.582-8,8v32c0,4.418,3.582,8,8,8s8-3.582,8-8v-32C220,131.582,216.418,128,212,128z"/>
	</g>
</g>
<g>
	<g>
		<path d="M217.46,210.344c-3.1-2.994-8.015-2.994-11.116,0c-14.558,14.527-38.13,14.527-52.688,0
			c-3.178-3.069-8.243-2.981-11.312,0.197c-2.994,3.1-2.994,8.015,0,11.115c20.814,20.756,54.498,20.756,75.312,0
			C220.726,218.478,220.638,213.413,217.46,210.344z"/>
	</g>
</g>
<g>
	<g>
		<path d="M308,32h-80V8c0-4.418-3.582-8-8-8h-80c-4.418,0-8,3.582-8,8v24c-22.08,0.026-39.974,17.92-40,40v160
			c0.026,22.08,17.92,39.974,40,40h96c22.08-0.026,39.974-17.92,40-40V72c-0.029-8.684-2.914-17.117-8.208-24H308
			c4.418,0,8-3.582,8-8S312.418,32,308,32z M148,16h64v16h-64V16z M252,232c0,13.255-10.745,24-24,24h-96c-13.255,0-24-10.745-24-24
			V112h64c1.731,0,3.415-0.561,4.8-1.6L196,96v8c0,4.418,3.582,8,8,8h48V232z M252,96h-40V80c0-4.418-3.582-8-8-8
			c-1.731,0-3.415,0.561-4.8,1.6L169.336,96H108V72c0-13.255,10.745-24,24-24h96c13.255,0,24,10.745,24,24V96z"/>
	</g>
</g>
<g>
	<g>
		<path d="M404,160H292c-4.418,0-8,3.582-8,8v88h-16c-4.418,0-8,3.582-8,8v24H106.744C85.357,288.026,68.026,305.357,68,326.744V472
			c0,4.418,3.582,8,8,8h192c4.418,0,8-3.582,8-8v-48h40c4.418,0,8-3.582,8-8V304c19.001-0.024,35.373-13.389,39.2-32H404
			c4.418,0,8-3.582,8-8v-96C412,163.582,408.418,160,404,160z M195.352,304L180,323.2L164.648,304H195.352z M260,464H132V360
			c0-4.418-3.582-8-8-8s-8,3.582-8,8v104H84V326.744c0.013-12.556,10.188-22.731,22.744-22.744h37.408l29.6,37
			c2.759,3.451,7.794,4.011,11.244,1.252c0.462-0.37,0.882-0.789,1.252-1.252l29.6-37H260V464z M340,176h16v32h-16V176z M308,408
			h-32v-80h32V408z M324,288h-8c-4.418,0-8,3.582-8,8v16h-32v-40h70.632C343.229,281.582,334.168,287.988,324,288z M396,256h-96v-80
			h24v40c0,4.418,3.582,8,8,8h32c4.418,0,8-3.582,8-8v-40h24V256z"/>
	</g>
</g>
<g>
	<g>
		<path d="M236,352h-32c-4.418,0-8,3.582-8,8s3.582,8,8,8h32c4.418,0,8-3.582,8-8S240.418,352,236,352z"/>
	</g>
</g>
<g>
</g>
<g>
</g>
<g>
</g>
<g>
</g>
<g>
</g>
<g>
</g>
<g>
</g>
<g>
</g>
<g>
</g>
<g>
</g>
<g>
</g>
<g>
</g>
<g>
</g>
<g>
</g>
<g>
</g>
</svg>
