<?xml version="1.0" encoding="iso-8859-1"?>
<!-- Generator: Adobe Illustrator 19.0.0, SVG Export Plug-In . SVG Version: 6.00 Build 0)  -->
<svg version="1.1" id="Capa_1" xmlns="http://www.w3.org/2000/svg" xmlns:xlink="http://www.w3.org/1999/xlink" x="0px" y="0px"
	 viewBox="0 0 480 480" style="enable-background:new 0 0 480 480;" xml:space="preserve">
<g>
	<g>
		<path d="M48,204c-4.418,0-8,3.582-8,8v112c0,4.418,3.582,8,8,8s8-3.582,8-8V212C56,207.582,52.418,204,48,204z"/>
	</g>
</g>
<g>
	<g>
		<path d="M96,204c-4.418,0-8,3.582-8,8v112c0,4.418,3.582,8,8,8s8-3.582,8-8V212C104,207.582,100.418,204,96,204z"/>
	</g>
</g>
<g>
	<g>
		<path d="M144,204c-4.418,0-8,3.582-8,8v112c0,4.418,3.582,8,8,8s8-3.582,8-8V212C152,207.582,148.418,204,144,204z"/>
	</g>
</g>
<g>
	<g>
		<path d="M192,204c-4.418,0-8,3.582-8,8v112c0,4.418,3.582,8,8,8s8-3.582,8-8V212C200,207.582,196.418,204,192,204z"/>
	</g>
</g>
<g>
	<g>
		<path d="M240,204c-4.418,0-8,3.582-8,8v112c0,4.418,3.582,8,8,8s8-3.582,8-8V212C248,207.582,244.418,204,240,204z"/>
	</g>
</g>
<g>
	<g>
		<path d="M288,204c-4.418,0-8,3.582-8,8v112c0,4.418,3.582,8,8,8s8-3.582,8-8V212C296,207.582,292.418,204,288,204z"/>
	</g>
</g>
<g>
	<g>
		<path d="M336,204c-4.418,0-8,3.582-8,8v112c0,4.418,3.582,8,8,8s8-3.582,8-8V212C344,207.582,340.418,204,336,204z"/>
	</g>
</g>
<g>
	<g>
		<path d="M384,204c-4.418,0-8,3.582-8,8v112c0,4.418,3.582,8,8,8s8-3.582,8-8V212C392,207.582,388.418,204,384,204z"/>
	</g>
</g>
<g>
	<g>
		<path d="M432,204c-4.418,0-8,3.582-8,8v112c0,4.418,3.582,8,8,8s8-3.582,8-8V212C440,207.582,436.418,204,432,204z"/>
	</g>
</g>
<g>
	<g>
		<path d="M440,140h-32c-4.418,0-8,3.582-8,8s3.582,8,8,8h32c4.418,0,8-3.582,8-8S444.418,140,440,140z"/>
	</g>
</g>
<g>
	<g>
		<path d="M72,140H40c-4.418,0-8,3.582-8,8s3.582,8,8,8h32c4.418,0,8-3.582,8-8S76.418,140,72,140z"/>
	</g>
</g>
<g>
	<g>
		<path d="M456,84c-13.255,0-24,10.745-24,24v8H48v-8c0-13.255-10.745-24-24-24S0,94.745,0,108v280c0,4.418,3.582,8,8,8h464
			c4.418,0,8-3.582,8-8V108C480,94.745,469.255,84,456,84z M16,108c0-4.418,3.582-8,8-8s8,3.582,8,8v8H16V108z M144,380H16v-16h128
			V380z M192,380h-32v-16h32V380z M272,380h-64v-16h64V380z M320,380h-32v-16h32V380z M464,380H336v-16h128V380z M464,348H16V188
			h448V348z M464,172H16v-40h448V172z M464,116h-16v-8c0-4.418,3.582-8,8-8s8,3.582,8,8V116z"/>
	</g>
</g>
<g>
</g>
<g>
</g>
<g>
</g>
<g>
</g>
<g>
</g>
<g>
</g>
<g>
</g>
<g>
</g>
<g>
</g>
<g>
</g>
<g>
</g>
<g>
</g>
<g>
</g>
<g>
</g>
<g>
</g>
</svg>
