<?xml version="1.0" encoding="iso-8859-1"?>
<!-- Generator: Adobe Illustrator 19.0.0, SVG Export Plug-In . SVG Version: 6.00 Build 0)  -->
<svg version="1.1" id="Capa_1" xmlns="http://www.w3.org/2000/svg" xmlns:xlink="http://www.w3.org/1999/xlink" x="0px" y="0px"
	 viewBox="0 0 480 480" style="enable-background:new 0 0 480 480;" xml:space="preserve">
<g>
	<g>
		<path d="M220.002,128c-4.418,0-8,3.582-8,8v32c0,4.418,3.582,8,8,8s8-3.582,8-8v-32C228.002,131.582,224.42,128,220.002,128z"/>
	</g>
</g>
<g>
	<g>
		<path d="M284.002,128c-4.418,0-8,3.582-8,8v32c0,4.418,3.582,8,8,8s8-3.582,8-8v-32C292.002,131.582,288.42,128,284.002,128z"/>
	</g>
</g>
<g>
	<g>
		<path d="M289.461,210.344c-3.1-2.994-8.015-2.994-11.116,0c-14.562,14.519-38.126,14.519-52.688,0
			c-3.178-3.069-8.243-2.981-11.312,0.197c-2.994,3.1-2.994,8.015,0,11.115c20.808,20.769,54.504,20.769,75.312,0
			C292.727,218.478,292.639,213.413,289.461,210.344z"/>
	</g>
</g>
<g>
	<g>
		<path d="M324.002,288h-144c-22.08,0.026-39.974,17.92-40,40v144c0,4.418,3.582,8,8,8h208c4.418,0,8-3.582,8-8V328
			C363.975,305.92,346.082,288.026,324.002,288z M267.354,304l-15.352,19.2L236.65,304H267.354z M348.002,464h-32V360
			c0-4.418-3.582-8-8-8s-8,3.582-8,8v104h-96V360c0-4.418-3.582-8-8-8s-8,3.582-8,8v104h-32V328c0-13.255,10.745-24,24-24h36.16
			l29.6,37c2.759,3.451,7.794,4.011,11.244,1.252c0.462-0.37,0.882-0.789,1.252-1.252l29.584-37h36.16c13.255,0,24,10.745,24,24V464
			z"/>
	</g>
</g>
<g>
	<g>
		<path d="M380.002,96h-8V72c-0.048-39.744-32.256-71.952-72-72h-96c-39.744,0.048-71.952,32.256-72,72v24h-8c-4.418,0-8,3.582-8,8
			v62.928l-23.72,86.968c-1.162,4.263,1.352,8.66,5.614,9.822c0.686,0.187,1.394,0.282,2.106,0.282h24v8c0,4.418,3.582,8,8,8h32
			c4.418,0,8-3.582,8-8v-16.248c7.487,10.184,19.36,16.213,32,16.248h96c22.08-0.026,39.974-17.92,40-40v-56h40c4.418,0,8-3.582,8-8
			v-64C388.002,99.582,384.42,96,380.002,96z M156.002,264h-16v-16h16V264z M164.002,232h-32c-4.418,0-8,3.582-8,8v8h-13.528
			l19.64-72h33.888V232z M164.002,160h-32v-48h32V160z M324.002,232c0,13.255-10.745,24-24,24h-96c-13.255,0-24-10.745-24-24V112h64
			c1.731,0,3.415-0.561,4.8-1.6l19.2-14.4v8c0,4.418,3.582,8,8,8h48V232z M324.002,96h-40V80c0-4.418-3.582-8-8-8
			c-1.731,0-3.415,0.561-4.8,1.6L241.338,96h-61.336V72c0-13.255,10.745-24,24-24h96c13.255,0,24,10.745,24,24V96z M300.002,32h-96
			c-22.08,0.026-39.974,17.92-40,40v24h-16V72c0.035-30.913,25.087-55.965,56-56h96c30.913,0.035,55.965,25.087,56,56v24h-16V72
			C339.975,49.92,322.082,32.026,300.002,32z M372.002,160h-32v-48h32V160z"/>
	</g>
</g>
<g>
</g>
<g>
</g>
<g>
</g>
<g>
</g>
<g>
</g>
<g>
</g>
<g>
</g>
<g>
</g>
<g>
</g>
<g>
</g>
<g>
</g>
<g>
</g>
<g>
</g>
<g>
</g>
<g>
</g>
</svg>
