<?xml version="1.0" encoding="iso-8859-1"?>
<!-- Generator: Adobe Illustrator 19.0.0, SVG Export Plug-In . SVG Version: 6.00 Build 0)  -->
<svg version="1.1" id="Capa_1" xmlns="http://www.w3.org/2000/svg" xmlns:xlink="http://www.w3.org/1999/xlink" x="0px" y="0px"
	 viewBox="0 0 480 480" style="enable-background:new 0 0 480 480;" xml:space="preserve">
<g>
	<g>
		<path d="M472,272h-32V168c0-4.418-3.582-8-8-8H288c-4.418,0-8,3.582-8,8v104h-32c-4.418,0-8,3.582-8,8v192c0,4.418,3.582,8,8,8
			h224c4.418,0,8-3.582,8-8V280C480,275.582,476.418,272,472,272z M344,176h32v32h-32V176z M296,176h32v40c0,4.418,3.582,8,8,8h48
			c4.418,0,8-3.582,8-8v-40h32v96H296V176z M384,288v96h-48v-96H384z M464,464H256V288h64v104c0,4.418,3.582,8,8,8h64
			c4.418,0,8-3.582,8-8V288h64V464z"/>
	</g>
</g>
<g>
	<g>
		<path d="M216,0H8C3.582,0,0,3.582,0,8v464c0,4.418,3.582,8,8,8h208c4.418,0,8-3.582,8-8V8C224,3.582,220.418,0,216,0z M88,16h48
			v96H88V16z M208,464H16V16h56v104c0,4.418,3.582,8,8,8h64c4.418,0,8-3.582,8-8V16h56V464z"/>
	</g>
</g>
<g>
	<g>
		<rect x="40" y="432" width="64" height="16"/>
	</g>
</g>
<g>
	<g>
		<polygon points="88,356.688 68,376.688 48,356.688 26.344,378.344 37.656,389.656 40,387.312 40,416 56,416 56,387.312 
			58.344,389.656 68,380 77.656,389.656 80,387.312 80,416 96,416 96,387.312 98.344,389.656 109.656,378.344 		"/>
	</g>
</g>
<g>
	<g>
		<path d="M144,400v48h48v-48H144z M176,432h-16v-16h16V432z"/>
	</g>
</g>
<g>
	<g>
		<rect x="128" y="368" width="16" height="16"/>
	</g>
</g>
<g>
	<g>
		<rect x="160" y="368" width="32" height="16"/>
	</g>
</g>
<g>
	<g>
		<rect x="128" y="336" width="64" height="16"/>
	</g>
</g>
<g>
</g>
<g>
</g>
<g>
</g>
<g>
</g>
<g>
</g>
<g>
</g>
<g>
</g>
<g>
</g>
<g>
</g>
<g>
</g>
<g>
</g>
<g>
</g>
<g>
</g>
<g>
</g>
<g>
</g>
</svg>
