<svg id="Layer_1" data-name="Layer 1" xmlns="http://www.w3.org/2000/svg" viewBox="0 0 72.87 31.75"><title>20-dfc</title><rect x="1.49" y="2.04" width="69.9" height="28.87" fill="none" stroke="#010101" stroke-width="1.11"/><rect x="0.56" y="0.56" width="4.73" height="3.2" fill="#fff"/><rect x="0.56" y="0.56" width="4.73" height="3.2" fill="none" stroke="#010101" stroke-width="1.11"/><rect x="0.56" y="28" width="4.73" height="3.2" fill="#fff"/><rect x="0.56" y="28" width="4.73" height="3.2" fill="none" stroke="#010101" stroke-width="1.11"/><rect x="67.59" y="0.56" width="4.73" height="3.2" fill="#fff"/><rect x="67.59" y="0.56" width="4.73" height="3.2" fill="none" stroke="#010101" stroke-width="1.11"/><rect x="67.59" y="28" width="4.73" height="3.2" fill="#fff"/><rect x="67.59" y="28" width="4.73" height="3.2" fill="none" stroke="#010101" stroke-width="1.11"/><rect x="6.9" y="2.22" width="0.96" height="28.36" fill="#fff"/><rect x="6.9" y="2.22" width="0.96" height="28.36" fill="none" stroke="#010101" stroke-width="0.55"/><rect x="13.97" y="2.22" width="0.96" height="28.36" fill="#fff"/><rect x="13.97" y="2.22" width="0.96" height="28.36" fill="none" stroke="#010101" stroke-width="0.55"/><rect x="21.03" y="2.22" width="0.96" height="28.36" fill="#fff"/><rect x="21.03" y="2.22" width="0.96" height="28.36" fill="none" stroke="#010101" stroke-width="0.55"/><rect x="28.96" y="2.22" width="0.96" height="28.36" fill="#fff"/><rect x="28.96" y="2.22" width="0.96" height="28.36" fill="none" stroke="#010101" stroke-width="0.55"/><rect x="36.03" y="2.22" width="0.96" height="28.36" fill="#fff"/><rect x="36.03" y="2.22" width="0.96" height="28.36" fill="none" stroke="#010101" stroke-width="0.55"/><rect x="43.09" y="2.22" width="0.96" height="28.36" fill="#fff"/><rect x="43.09" y="2.22" width="0.96" height="28.36" fill="none" stroke="#010101" stroke-width="0.55"/><rect x="51.03" y="2.22" width="0.96" height="28.36" fill="#fff"/><rect x="51.03" y="2.22" width="0.96" height="28.36" fill="none" stroke="#010101" stroke-width="0.55"/><rect x="58.09" y="2.22" width="0.96" height="28.36" fill="#fff"/><rect x="58.09" y="2.22" width="0.96" height="28.36" fill="none" stroke="#010101" stroke-width="0.55"/><rect x="65.15" y="2.22" width="0.96" height="28.36" fill="#fff"/><rect x="65.15" y="2.22" width="0.96" height="28.36" fill="none" stroke="#010101" stroke-width="0.55"/><line x1="3.07" y1="3.81" x2="3.07" y2="27.72" fill="#fff"/><line x1="3.07" y1="3.81" x2="3.07" y2="27.72" fill="none" stroke="#010101" stroke-width="0.56"/><line x1="69.85" y1="3.81" x2="69.85" y2="27.72" fill="#fff"/><line x1="69.85" y1="3.81" x2="69.85" y2="27.72" fill="none" stroke="#010101" stroke-width="0.56"/></svg>