<svg id="Layer_1" data-name="Layer 1" xmlns="http://www.w3.org/2000/svg" xmlns:xlink="http://www.w3.org/1999/xlink" viewBox="0 0 72.41 32.8"><defs><clipPath id="clip-path" transform="translate(-1.67 -1.75)"><rect width="75.74" height="36.5" fill="none"/></clipPath></defs><title>20-fr</title><g clip-path="url(#clip-path)"><g clip-path="url(#clip-path)"><rect x="0.56" y="0.56" width="3.34" height="31.69" fill="none" stroke="#010101" stroke-width="1.11"/><line x1="0.56" y1="3.06" x2="3.75" y2="3.06" fill="none" stroke="#010101" stroke-width="1.11"/><line x1="0.56" y1="29.91" x2="3.75" y2="29.91" fill="none" stroke="#010101" stroke-width="1.11"/><line x1="2.22" y1="3.06" x2="2.22" y2="0.48" fill="none" stroke="#010101" stroke-width="1.11"/><line x1="2.22" y1="32.53" x2="2.22" y2="29.95" fill="none" stroke="#010101" stroke-width="1.11"/><rect x="68.51" y="0.56" width="3.34" height="31.69" fill="none" stroke="#010101" stroke-width="1.11"/><line x1="68.51" y1="3.06" x2="71.71" y2="3.06" fill="none" stroke="#010101" stroke-width="1.11"/><line x1="68.51" y1="29.91" x2="71.71" y2="29.91" fill="none" stroke="#010101" stroke-width="1.11"/><line x1="70.18" y1="3.06" x2="70.18" y2="0.48" fill="none" stroke="#010101" stroke-width="1.11"/><line x1="70.18" y1="32.53" x2="70.18" y2="29.95" fill="none" stroke="#010101" stroke-width="1.11"/><rect x="4.31" y="29.46" width="63.51" height="2.43" fill="none" stroke="#010101" stroke-width="0.56"/><rect x="20.78" y="30.64" width="2.92" height="1.04" fill="#fff"/><rect x="20.78" y="30.64" width="2.92" height="1.04" fill="none" stroke="#010101" stroke-width="0.56"/><rect x="26.61" y="30.64" width="2.92" height="1.04" fill="#fff"/><rect x="26.61" y="30.64" width="2.92" height="1.04" fill="none" stroke="#010101" stroke-width="0.56"/><rect x="43.29" y="30.64" width="2.92" height="1.04" fill="#fff"/><rect x="43.29" y="30.64" width="2.92" height="1.04" fill="none" stroke="#010101" stroke-width="0.56"/><rect x="50.03" y="30.64" width="2.92" height="1.04" fill="#fff"/><rect x="50.03" y="30.64" width="2.92" height="1.04" fill="none" stroke="#010101" stroke-width="0.56"/></g></g></svg>