<svg id="Layer_1" data-name="Layer 1" xmlns="http://www.w3.org/2000/svg" xmlns:xlink="http://www.w3.org/1999/xlink" viewBox="0 0 71.02 31.09"><defs><clipPath id="clip-path" transform="translate(-1.67 -1.67)"><rect width="74.35" height="34.42" fill="none"/></clipPath></defs><title>20-os</title><g clip-path="url(#clip-path)"><g clip-path="url(#clip-path)"><rect x="0.56" y="0.56" width="69.9" height="29.98" fill="none" stroke="#010101" stroke-width="1.11"/><rect x="67.03" y="0.56" width="3.38" height="1.89" fill="#fff"/><rect x="67.03" y="0.56" width="3.38" height="1.89" fill="none" stroke="#010101" stroke-width="0.9"/><rect x="0.5" y="0.56" width="3.38" height="1.89" fill="#fff"/><rect x="0.5" y="0.56" width="3.38" height="1.89" fill="none" stroke="#010101" stroke-width="0.9"/><rect x="0.5" y="28.5" width="3.38" height="1.89" fill="#fff"/><rect x="0.5" y="28.5" width="3.38" height="1.89" fill="none" stroke="#010101" stroke-width="0.9"/><rect x="67.03" y="28.5" width="3.38" height="1.89" fill="#fff"/><rect x="67.03" y="28.5" width="3.38" height="1.89" fill="none" stroke="#010101" stroke-width="0.9"/><rect x="3.68" y="2.34" width="63.41" height="26.26" fill="#fff"/><rect x="3.68" y="2.34" width="63.41" height="26.26" fill="none" stroke="#010101" stroke-width="0.9"/><line x1="6.36" y1="2.53" x2="6.36" y2="28.6" fill="#fff"/><line x1="6.36" y1="2.53" x2="6.36" y2="28.6" fill="none" stroke="#010101" stroke-width="0.56"/><line x1="9.51" y1="2.53" x2="9.51" y2="28.6" fill="#fff"/><line x1="9.51" y1="2.53" x2="9.51" y2="28.6" fill="none" stroke="#010101" stroke-width="0.56"/><line x1="12.66" y1="2.53" x2="12.66" y2="28.6" fill="#fff"/><line x1="12.66" y1="2.53" x2="12.66" y2="28.6" fill="none" stroke="#010101" stroke-width="0.56"/><line x1="15.81" y1="2.53" x2="15.81" y2="28.6" fill="#fff"/><line x1="15.81" y1="2.53" x2="15.81" y2="28.6" fill="none" stroke="#010101" stroke-width="0.56"/><line x1="18.97" y1="2.53" x2="18.97" y2="28.6" fill="#fff"/><line x1="18.97" y1="2.53" x2="18.97" y2="28.6" fill="none" stroke="#010101" stroke-width="0.56"/><line x1="22.12" y1="2.53" x2="22.12" y2="28.6" fill="#fff"/><line x1="22.12" y1="2.53" x2="22.12" y2="28.6" fill="none" stroke="#010101" stroke-width="0.56"/><line x1="25.27" y1="2.53" x2="25.27" y2="28.6" fill="#fff"/><line x1="25.27" y1="2.53" x2="25.27" y2="28.6" fill="none" stroke="#010101" stroke-width="0.56"/><line x1="28.42" y1="2.53" x2="28.42" y2="28.6" fill="#fff"/><line x1="28.42" y1="2.53" x2="28.42" y2="28.6" fill="none" stroke="#010101" stroke-width="0.56"/><line x1="31.57" y1="2.53" x2="31.57" y2="28.6" fill="#fff"/><line x1="31.57" y1="2.53" x2="31.57" y2="28.6" fill="none" stroke="#010101" stroke-width="0.56"/><line x1="34.73" y1="2.53" x2="34.73" y2="28.6" fill="#fff"/><line x1="34.73" y1="2.53" x2="34.73" y2="28.6" fill="none" stroke="#010101" stroke-width="0.56"/><line x1="38.01" y1="12.54" x2="38.01" y2="28.6" fill="#fff"/><line x1="38.01" y1="12.54" x2="38.01" y2="28.6" fill="none" stroke="#010101" stroke-width="0.56"/><line x1="41.43" y1="22.54" x2="41.43" y2="28.6" fill="#fff"/><line x1="41.43" y1="22.54" x2="41.43" y2="28.6" fill="none" stroke="#010101" stroke-width="0.56"/><line x1="3.81" y1="5.57" x2="37.31" y2="5.57" fill="#fff"/><line x1="3.81" y1="5.57" x2="37.31" y2="5.57" fill="none" stroke="#010101" stroke-width="0.56"/><line x1="3.81" y1="9.07" x2="37.66" y2="9.07" fill="#fff"/><line x1="3.81" y1="9.07" x2="37.66" y2="9.07" fill="none" stroke="#010101" stroke-width="0.56"/><line x1="3.81" y1="12.56" x2="37.9" y2="12.56" fill="#fff"/><line x1="3.81" y1="12.56" x2="37.9" y2="12.56" fill="none" stroke="#010101" stroke-width="0.56"/><line x1="3.81" y1="15.77" x2="38.78" y2="15.77" fill="#fff"/><line x1="3.81" y1="15.77" x2="38.78" y2="15.77" fill="none" stroke="#010101" stroke-width="0.56"/><line x1="3.81" y1="19.13" x2="39.89" y2="19.13" fill="#fff"/><line x1="3.81" y1="19.13" x2="39.89" y2="19.13" fill="none" stroke="#010101" stroke-width="0.56"/><line x1="3.81" y1="22.27" x2="41" y2="22.27" fill="#fff"/><line x1="3.81" y1="22.27" x2="41" y2="22.27" fill="none" stroke="#010101" stroke-width="0.56"/><line x1="3.81" y1="25.49" x2="43.22" y2="25.49" fill="#fff"/><line x1="3.81" y1="25.49" x2="43.22" y2="25.49" fill="none" stroke="#010101" stroke-width="0.56"/><path d="M39,4.13s-1.33,17.4,8.71,26" transform="translate(-1.67 -1.67)" fill="none" stroke="#010101" stroke-width="0.56"/><rect x="14.83" y="28.72" width="5.07" height="1.76" fill="#fff"/><rect x="14.83" y="28.72" width="5.07" height="1.76" fill="none" stroke="#010101" stroke-width="1.11"/><rect x="48.65" y="28.72" width="5.07" height="1.76" fill="#fff"/><rect x="48.65" y="28.72" width="5.07" height="1.76" fill="none" stroke="#010101" stroke-width="1.11"/></g></g></svg>