<svg id="Layer_1" data-name="Layer 1" xmlns="http://www.w3.org/2000/svg" xmlns:xlink="http://www.w3.org/1999/xlink" viewBox="0 0 72.87 31.75"><defs><clipPath id="clip-path" transform="translate(-1.67 -1.67)"><rect width="76.2" height="35.09" fill="none"/></clipPath></defs><title>20-ot</title><g clip-path="url(#clip-path)"><g clip-path="url(#clip-path)"><polygon points="71.4 30.91 1.49 30.91 1.49 2.04 13.33 0.93 71.4 2.04 71.4 30.91" fill="none" stroke="#010101" stroke-width="1.11"/><rect x="0.56" y="0.56" width="4.73" height="3.2" fill="#fff"/><rect x="0.56" y="0.56" width="4.73" height="3.2" fill="none" stroke="#010101" stroke-width="1.11"/><rect x="0.56" y="28" width="4.73" height="3.2" fill="#fff"/><rect x="0.56" y="28" width="4.73" height="3.2" fill="none" stroke="#010101" stroke-width="1.11"/><rect x="67.59" y="0.56" width="4.73" height="3.2" fill="#fff"/><rect x="67.59" y="0.56" width="4.73" height="3.2" fill="none" stroke="#010101" stroke-width="1.11"/><rect x="67.59" y="28" width="4.73" height="3.2" fill="#fff"/><rect x="67.59" y="28" width="4.73" height="3.2" fill="none" stroke="#010101" stroke-width="1.11"/><rect x="6.9" y="6.67" width="0.96" height="24.1" fill="#fff"/><rect x="6.9" y="6.67" width="0.96" height="24.1" fill="none" stroke="#010101" stroke-width="0.52"/><rect x="13.97" y="6.67" width="0.96" height="24.1" fill="#fff"/><rect x="13.97" y="6.67" width="0.96" height="24.1" fill="none" stroke="#010101" stroke-width="0.52"/><rect x="21.03" y="6.67" width="0.96" height="24.1" fill="#fff"/><rect x="21.03" y="6.67" width="0.96" height="24.1" fill="none" stroke="#010101" stroke-width="0.52"/><rect x="28.96" y="6.67" width="0.96" height="24.1" fill="#fff"/><rect x="28.96" y="6.67" width="0.96" height="24.1" fill="none" stroke="#010101" stroke-width="0.52"/><rect x="36.03" y="6.67" width="0.96" height="24.1" fill="#fff"/><rect x="36.03" y="6.67" width="0.96" height="24.1" fill="none" stroke="#010101" stroke-width="0.52"/><rect x="43.09" y="6.67" width="0.96" height="24.1" fill="#fff"/><rect x="43.09" y="6.67" width="0.96" height="24.1" fill="none" stroke="#010101" stroke-width="0.52"/><rect x="51.03" y="6.67" width="0.96" height="24.1" fill="#fff"/><rect x="51.03" y="6.67" width="0.96" height="24.1" fill="none" stroke="#010101" stroke-width="0.52"/><rect x="58.09" y="6.67" width="0.96" height="24.1" fill="#fff"/><rect x="58.09" y="6.67" width="0.96" height="24.1" fill="none" stroke="#010101" stroke-width="0.52"/><rect x="65.15" y="6.67" width="0.96" height="24.1" fill="#fff"/><rect x="65.15" y="6.67" width="0.96" height="24.1" fill="none" stroke="#010101" stroke-width="0.52"/><line x1="3.07" y1="3.81" x2="3.07" y2="27.72" fill="#fff"/><line x1="3.07" y1="3.81" x2="3.07" y2="27.72" fill="none" stroke="#010101" stroke-width="0.56"/><line x1="69.85" y1="3.81" x2="69.85" y2="27.72" fill="#fff"/><line x1="69.85" y1="3.81" x2="69.85" y2="27.72" fill="none" stroke="#010101" stroke-width="0.56"/><line x1="3.07" y1="6.75" x2="69.75" y2="6.75" fill="#fff"/><line x1="3.07" y1="6.75" x2="69.75" y2="6.75" fill="none" stroke="#010101" stroke-width="0.83"/><polyline points="7.08 4.41 9.43 10.32 10.76 4.29 14.22 9.98 16.9 4.29 21.14 10.09 24.7 4.29 29.39 10.09 32.73 4.29 36.41 10.09 40.09 4.29 43.77 10.21 47.34 4.41 51.47 10.43 54.92 4.29 58.49 10.09 61.84 4.29 65.41 10.32 69.42 4.18" fill="none" stroke="#010101" stroke-miterlimit="1" stroke-width="0.56"/></g></g></svg>