<svg id="Layer_1" data-name="Layer 1" xmlns="http://www.w3.org/2000/svg" xmlns:xlink="http://www.w3.org/1999/xlink" viewBox="0 0 142.49 19.87"><defs><clipPath id="clip-path" transform="translate(-1.67 -1.94)"><rect width="145.78" height="23.48" fill="none"/></clipPath></defs><title>40-at</title><g clip-path="url(#clip-path)"><g clip-path="url(#clip-path)"><rect x="0.56" y="13.75" width="141.34" height="5.56" fill="#fff"/><rect x="0.56" y="13.75" width="141.34" height="5.56" fill="none" stroke="#010101" stroke-width="1.11"/><polygon points="5.25 12.62 1.19 12.62 8.62 0.65 11.85 0.65 5.25 12.62" fill="#fff"/><polygon points="5.25 12.62 1.19 12.62 8.62 0.65 11.85 0.65 5.25 12.62" fill="none" stroke="#010101" stroke-width="1.3"/><polygon points="141.38 12.62 137.32 12.62 131.4 0.65 134.63 0.65 141.38 12.62" fill="#fff"/><polygon points="141.38 12.62 137.32 12.62 131.4 0.65 134.63 0.65 141.38 12.62" fill="none" stroke="#010101" stroke-width="1.3"/><line x1="11.85" y1="0.65" x2="131.4" y2="0.65" fill="#fff"/><line x1="11.85" y1="0.65" x2="131.4" y2="0.65" fill="none" stroke="#010101" stroke-width="1.3"/><line x1="5.12" y1="12.27" x2="140.24" y2="12.27" fill="#fff"/><line x1="5.12" y1="12.27" x2="140.24" y2="12.27" fill="none" stroke="#010101" stroke-width="1.11"/><line x1="6.23" y1="9.75" x2="136.13" y2="9.75" fill="#fff"/><line x1="6.23" y1="9.75" x2="136.13" y2="9.75" fill="none" stroke="#010101"/><line x1="7.34" y1="7.85" x2="135.24" y2="7.85" fill="#fff"/><line x1="7.34" y1="7.85" x2="135.24" y2="7.85" fill="none" stroke="#010101" stroke-width="0.88"/><line x1="8.46" y1="5.96" x2="134.35" y2="5.96" fill="#fff"/><line x1="8.46" y1="5.96" x2="134.35" y2="5.96" fill="none" stroke="#010101" stroke-width="0.77"/><line x1="9.57" y1="4.2" x2="133.24" y2="4.2" fill="#fff"/><line x1="9.57" y1="4.2" x2="133.24" y2="4.2" fill="none" stroke="#010101" stroke-width="0.66"/><line x1="10.68" y1="2.94" x2="132.35" y2="2.94" fill="#fff"/><line x1="10.68" y1="2.94" x2="132.35" y2="2.94" fill="none" stroke="#010101" stroke-width="0.55"/><line x1="7.34" y1="1.99" x2="135.24" y2="1.99" fill="#fff"/><line x1="7.34" y1="1.99" x2="135.24" y2="1.99" fill="none" stroke="#010101" stroke-width="0.22"/><line x1="137.22" y1="13.39" x2="137.22" y2="18.95" fill="none" stroke="#010101" stroke-width="1.11"/><line x1="5.03" y1="13.61" x2="5.03" y2="19.17" fill="none" stroke="#010101" stroke-width="1.11"/></g></g></svg>