<svg id="Layer_1" data-name="Layer 1" xmlns="http://www.w3.org/2000/svg" xmlns:xlink="http://www.w3.org/1999/xlink" viewBox="0 0 140.69 31.75"><defs><clipPath id="clip-path" transform="translate(-1.67 -1.67)"><rect width="144.02" height="35.09" fill="none"/></clipPath><clipPath id="clip-path-2" transform="translate(-1.67 -1.67)"><rect width="144.02" height="35.09" fill="none"/></clipPath></defs><title>40-dfc</title><g clip-path="url(#clip-path)"><g clip-path="url(#clip-path-2)"><rect x="1.49" y="2.04" width="137.72" height="28.86" fill="none" stroke="#010101" stroke-width="1.11"/><rect x="0.56" y="0.56" width="4.73" height="3.2" fill="#fff"/><rect x="0.56" y="0.56" width="4.73" height="3.2" fill="none" stroke="#010101" stroke-width="1.11"/><rect x="0.56" y="28" width="4.73" height="3.2" fill="#fff"/><rect x="0.56" y="28" width="4.73" height="3.2" fill="none" stroke="#010101" stroke-width="1.11"/><rect x="135.41" y="0.56" width="4.73" height="3.2" fill="#fff"/><rect x="135.41" y="0.56" width="4.73" height="3.2" fill="none" stroke="#010101" stroke-width="1.11"/><rect x="135.41" y="28" width="4.73" height="3.2" fill="#fff"/><rect x="135.41" y="28" width="4.73" height="3.2" fill="none" stroke="#010101" stroke-width="1.11"/><rect x="6.9" y="2.22" width="0.96" height="28.36" fill="#fff"/><rect x="6.9" y="2.22" width="0.96" height="28.36" fill="none" stroke="#010101" stroke-width="0.55"/><rect x="81.79" y="2.22" width="0.96" height="28.36" fill="#fff"/><rect x="81.79" y="2.22" width="0.96" height="28.36" fill="none" stroke="#010101" stroke-width="0.55"/><rect x="74.73" y="2.22" width="0.96" height="28.36" fill="#fff"/><rect x="74.73" y="2.22" width="0.96" height="28.36" fill="none" stroke="#010101" stroke-width="0.55"/><rect x="67.67" y="2.22" width="0.96" height="28.36" fill="#fff"/><rect x="67.67" y="2.22" width="0.96" height="28.36" fill="none" stroke="#010101" stroke-width="0.55"/><rect x="60.61" y="2.22" width="0.96" height="28.36" fill="#fff"/><rect x="60.61" y="2.22" width="0.96" height="28.36" fill="none" stroke="#010101" stroke-width="0.55"/><rect x="53.55" y="2.22" width="0.96" height="28.36" fill="#fff"/><rect x="53.55" y="2.22" width="0.96" height="28.36" fill="none" stroke="#010101" stroke-width="0.55"/><rect x="46.49" y="2.22" width="0.96" height="28.36" fill="#fff"/><rect x="46.49" y="2.22" width="0.96" height="28.36" fill="none" stroke="#010101" stroke-width="0.55"/><rect x="39.43" y="2.22" width="0.96" height="28.36" fill="#fff"/><rect x="39.43" y="2.22" width="0.96" height="28.36" fill="none" stroke="#010101" stroke-width="0.55"/><rect x="32.37" y="2.22" width="0.96" height="28.36" fill="#fff"/><rect x="32.37" y="2.22" width="0.96" height="28.36" fill="none" stroke="#010101" stroke-width="0.55"/><rect x="25.31" y="2.22" width="0.96" height="28.36" fill="#fff"/><rect x="25.31" y="2.22" width="0.96" height="28.36" fill="none" stroke="#010101" stroke-width="0.55"/><rect x="18.25" y="2.22" width="0.96" height="28.36" fill="#fff"/><rect x="18.25" y="2.22" width="0.96" height="28.36" fill="none" stroke="#010101" stroke-width="0.55"/><rect x="11.19" y="2.22" width="0.96" height="28.36" fill="#fff"/><rect x="11.19" y="2.22" width="0.96" height="28.36" fill="none" stroke="#010101" stroke-width="0.55"/><rect x="88.85" y="2.22" width="0.96" height="28.36" fill="#fff"/><rect x="88.85" y="2.22" width="0.96" height="28.36" fill="none" stroke="#010101" stroke-width="0.55"/><rect x="88.85" y="2.22" width="0.96" height="28.36" fill="#fff"/><rect x="88.85" y="2.22" width="0.96" height="28.36" fill="none" stroke="#010101" stroke-width="0.55"/><rect x="88.85" y="2.22" width="0.96" height="28.36" fill="#fff"/><rect x="88.85" y="2.22" width="0.96" height="28.36" fill="none" stroke="#010101" stroke-width="0.55"/><rect x="96.78" y="2.22" width="0.96" height="28.36" fill="#fff"/><rect x="96.78" y="2.22" width="0.96" height="28.36" fill="none" stroke="#010101" stroke-width="0.55"/><rect x="103.85" y="2.22" width="0.96" height="28.36" fill="#fff"/><rect x="103.85" y="2.22" width="0.96" height="28.36" fill="none" stroke="#010101" stroke-width="0.55"/><rect x="110.91" y="2.22" width="0.96" height="28.36" fill="#fff"/><rect x="110.91" y="2.22" width="0.96" height="28.36" fill="none" stroke="#010101" stroke-width="0.55"/><rect x="118.85" y="2.22" width="0.96" height="28.36" fill="#fff"/><rect x="118.85" y="2.22" width="0.96" height="28.36" fill="none" stroke="#010101" stroke-width="0.55"/><rect x="125.91" y="2.22" width="0.96" height="28.36" fill="#fff"/><rect x="125.91" y="2.22" width="0.96" height="28.36" fill="none" stroke="#010101" stroke-width="0.55"/><rect x="132.97" y="2.22" width="0.96" height="28.36" fill="#fff"/><rect x="132.97" y="2.22" width="0.96" height="28.36" fill="none" stroke="#010101" stroke-width="0.55"/><line x1="3.07" y1="3.81" x2="3.07" y2="27.72" fill="#fff"/><line x1="3.07" y1="3.81" x2="3.07" y2="27.72" fill="none" stroke="#010101" stroke-width="0.56"/><line x1="137.67" y1="3.81" x2="137.67" y2="27.72" fill="#fff"/><line x1="137.67" y1="3.81" x2="137.67" y2="27.72" fill="none" stroke="#010101" stroke-width="0.56"/></g></g></svg>