<svg id="Layer_1" data-name="Layer 1" xmlns="http://www.w3.org/2000/svg" xmlns:xlink="http://www.w3.org/1999/xlink" viewBox="0 0 138 29.46"><defs><clipPath id="clip-path" transform="translate(-1.67 -1.75)"><rect width="141.34" height="33.16" fill="none"/></clipPath></defs><title>40-cfr</title><g clip-path="url(#clip-path)"><g clip-path="url(#clip-path)"><rect x="0.56" y="0.56" width="3.34" height="28.35" fill="none" stroke="#010101" stroke-width="1.11"/><line x1="0.56" y1="3.06" x2="3.75" y2="3.06" fill="none" stroke="#010101" stroke-width="1.11"/><line x1="0.56" y1="26.57" x2="3.75" y2="26.57" fill="none" stroke="#010101" stroke-width="1.11"/><line x1="2.22" y1="3.06" x2="2.22" y2="0.48" fill="none" stroke="#010101" stroke-width="1.11"/><line x1="2.22" y1="29.19" x2="2.22" y2="26.61" fill="none" stroke="#010101" stroke-width="1.11"/><rect x="134.11" y="0.56" width="3.34" height="28.35" fill="none" stroke="#010101" stroke-width="1.11"/><line x1="134.11" y1="3.06" x2="137.31" y2="3.06" fill="none" stroke="#010101" stroke-width="1.11"/><line x1="134.11" y1="26.57" x2="137.31" y2="26.57" fill="none" stroke="#010101" stroke-width="1.11"/><line x1="135.78" y1="3.06" x2="135.78" y2="0.48" fill="none" stroke="#010101" stroke-width="1.11"/><line x1="135.78" y1="29.19" x2="135.78" y2="26.61" fill="none" stroke="#010101" stroke-width="1.11"/><rect x="4.31" y="26.13" width="129.11" height="2.43" fill="none" stroke="#010101" stroke-width="0.56"/><rect x="20.78" y="27.31" width="2.92" height="1.04" fill="#fff"/><rect x="20.78" y="27.31" width="2.92" height="1.04" fill="none" stroke="#010101" stroke-width="0.56"/><rect x="26.61" y="27.31" width="2.92" height="1.04" fill="#fff"/><rect x="26.61" y="27.31" width="2.92" height="1.04" fill="none" stroke="#010101" stroke-width="0.56"/><rect x="108.89" y="27.31" width="2.92" height="1.04" fill="#fff"/><rect x="108.89" y="27.31" width="2.92" height="1.04" fill="none" stroke="#010101" stroke-width="0.56"/><rect x="115.63" y="27.31" width="2.92" height="1.04" fill="#fff"/><rect x="115.63" y="27.31" width="2.92" height="1.04" fill="none" stroke="#010101" stroke-width="0.56"/></g></g></svg>