<svg id="Layer_1" data-name="Layer 1" xmlns="http://www.w3.org/2000/svg" xmlns:xlink="http://www.w3.org/1999/xlink" viewBox="0 0 147.05 28.35"><defs><clipPath id="clip-path" transform="translate(-1.67 -1.75)"><rect width="150.39" height="32.05" fill="none"/></clipPath></defs><title>40-fr</title><g clip-path="url(#clip-path)"><g clip-path="url(#clip-path)"><rect x="9.61" y="0.56" width="3.34" height="27.24" fill="none" stroke="#010101" stroke-width="1.11"/><line x1="9.61" y1="3.06" x2="12.8" y2="3.06" fill="none" stroke="#010101" stroke-width="1.11"/><line x1="9.61" y1="25.46" x2="12.8" y2="25.46" fill="none" stroke="#010101" stroke-width="1.11"/><line x1="11.27" y1="3.06" x2="11.27" y2="0.48" fill="none" stroke="#010101" stroke-width="1.11"/><line x1="11.27" y1="28.08" x2="11.27" y2="25.5" fill="none" stroke="#010101" stroke-width="1.11"/><rect x="143.16" y="0.56" width="3.34" height="27.24" fill="none" stroke="#010101" stroke-width="1.11"/><polyline points="146.36 3.06 143.16 3.06 132.09 3.61" fill="none" stroke="#010101" stroke-width="1.11"/><line x1="144.83" y1="3.06" x2="144.83" y2="0.48" fill="none" stroke="#010101" stroke-width="1.11"/><line x1="144.83" y1="28.08" x2="144.83" y2="25.5" fill="none" stroke="#010101" stroke-width="1.11"/><rect x="13.36" y="25.02" width="129.11" height="2.43" fill="none" stroke="#010101" stroke-width="0.56"/><rect x="29.83" y="26.2" width="2.92" height="1.04" fill="#fff"/><rect x="29.83" y="26.2" width="2.92" height="1.04" fill="none" stroke="#010101" stroke-width="0.56"/><rect x="35.66" y="26.2" width="2.92" height="1.04" fill="#fff"/><rect x="35.66" y="26.2" width="2.92" height="1.04" fill="none" stroke="#010101" stroke-width="0.56"/><rect x="117.94" y="26.2" width="2.92" height="1.04" fill="#fff"/><rect x="117.94" y="26.2" width="2.92" height="1.04" fill="none" stroke="#010101" stroke-width="0.56"/><rect x="124.68" y="26.2" width="2.92" height="1.04" fill="#fff"/><rect x="124.68" y="26.2" width="2.92" height="1.04" fill="none" stroke="#010101" stroke-width="0.56"/><polyline points="9.17 0.6 0.56 2.66 0.56 21.85 9.42 27.8" fill="none" stroke="#010101" stroke-width="1.11"/><line x1="9.58" y1="3.02" x2="0.87" y2="4.42" fill="none" stroke="#010101" stroke-width="1.11"/><line x1="2.5" y1="2.25" x2="2.54" y2="20.64" fill="none" stroke="#010101" stroke-miterlimit="1" stroke-width="1.11"/><line x1="2.27" y1="20.37" x2="9.42" y2="24.76" fill="none" stroke="#010101" stroke-miterlimit="1" stroke-width="1.11"/><polyline points="12.76 21.03 130.79 21.03 130.79 1.95 143.16 0.56" fill="none" stroke="#010101" stroke-miterlimit="1" stroke-width="1.11"/><polyline points="131.72 2.13 131.72 20.66 146.36 25.46 143.16 25.46" fill="none" stroke="#010101" stroke-width="1.11"/></g></g></svg>