<svg id="Layer_1" data-name="Layer 1" xmlns="http://www.w3.org/2000/svg" xmlns:xlink="http://www.w3.org/1999/xlink" viewBox="0 0 140.69 31.75"><defs><clipPath id="clip-path" transform="translate(-1.67 -1.67)"><rect width="144.02" height="35.09" fill="none"/></clipPath></defs><title>40-ot</title><g clip-path="url(#clip-path)"><g clip-path="url(#clip-path)"><polygon points="139.22 30.91 1.49 30.91 1.49 2.04 13.33 0.93 139.22 2.04 139.22 30.91" fill="none" stroke="#010101" stroke-width="1.11"/><rect x="0.56" y="0.56" width="4.73" height="3.2" fill="#fff"/><rect x="0.56" y="0.56" width="4.73" height="3.2" fill="none" stroke="#010101" stroke-width="1.11"/><rect x="0.56" y="28" width="4.73" height="3.2" fill="#fff"/><rect x="0.56" y="28" width="4.73" height="3.2" fill="none" stroke="#010101" stroke-width="1.11"/><rect x="135.41" y="0.56" width="4.73" height="3.2" fill="#fff"/><rect x="135.41" y="0.56" width="4.73" height="3.2" fill="none" stroke="#010101" stroke-width="1.11"/><rect x="135.41" y="28" width="4.73" height="3.2" fill="#fff"/><rect x="135.41" y="28" width="4.73" height="3.2" fill="none" stroke="#010101" stroke-width="1.11"/><rect x="74.72" y="6.67" width="0.96" height="24.1" fill="#fff"/><rect x="74.72" y="6.67" width="0.96" height="24.1" fill="none" stroke="#010101" stroke-width="0.52"/><rect x="67.66" y="6.67" width="0.96" height="24.1" fill="#fff"/><rect x="67.66" y="6.67" width="0.96" height="24.1" fill="none" stroke="#010101" stroke-width="0.52"/><rect x="60.6" y="6.67" width="0.96" height="24.1" fill="#fff"/><rect x="60.6" y="6.67" width="0.96" height="24.1" fill="none" stroke="#010101" stroke-width="0.52"/><rect x="53.54" y="6.67" width="0.96" height="24.1" fill="#fff"/><rect x="53.54" y="6.67" width="0.96" height="24.1" fill="none" stroke="#010101" stroke-width="0.52"/><rect x="46.48" y="6.67" width="0.96" height="24.1" fill="#fff"/><rect x="46.48" y="6.67" width="0.96" height="24.1" fill="none" stroke="#010101" stroke-width="0.52"/><rect x="39.43" y="6.67" width="0.96" height="24.1" fill="#fff"/><rect x="39.43" y="6.67" width="0.96" height="24.1" fill="none" stroke="#010101" stroke-width="0.52"/><rect x="32.37" y="6.67" width="0.96" height="24.1" fill="#fff"/><rect x="32.37" y="6.67" width="0.96" height="24.1" fill="none" stroke="#010101" stroke-width="0.52"/><rect x="25.31" y="6.67" width="0.96" height="24.1" fill="#fff"/><rect x="25.31" y="6.67" width="0.96" height="24.1" fill="none" stroke="#010101" stroke-width="0.52"/><rect x="18.25" y="6.67" width="0.96" height="24.1" fill="#fff"/><rect x="18.25" y="6.67" width="0.96" height="24.1" fill="none" stroke="#010101" stroke-width="0.52"/><rect x="11.19" y="6.67" width="0.96" height="24.1" fill="#fff"/><rect x="11.19" y="6.67" width="0.96" height="24.1" fill="none" stroke="#010101" stroke-width="0.52"/><rect x="81.79" y="6.67" width="0.96" height="24.1" fill="#fff"/><rect x="81.79" y="6.67" width="0.96" height="24.1" fill="none" stroke="#010101" stroke-width="0.52"/><rect x="88.85" y="6.67" width="0.96" height="24.1" fill="#fff"/><rect x="88.85" y="6.67" width="0.96" height="24.1" fill="none" stroke="#010101" stroke-width="0.52"/><rect x="96.78" y="6.67" width="0.96" height="24.1" fill="#fff"/><rect x="96.78" y="6.67" width="0.96" height="24.1" fill="none" stroke="#010101" stroke-width="0.52"/><rect x="103.85" y="6.67" width="0.96" height="24.1" fill="#fff"/><rect x="103.85" y="6.67" width="0.96" height="24.1" fill="none" stroke="#010101" stroke-width="0.52"/><rect x="110.91" y="6.67" width="0.96" height="24.1" fill="#fff"/><rect x="110.91" y="6.67" width="0.96" height="24.1" fill="none" stroke="#010101" stroke-width="0.52"/><rect x="118.85" y="6.67" width="0.96" height="24.1" fill="#fff"/><rect x="118.85" y="6.67" width="0.96" height="24.1" fill="none" stroke="#010101" stroke-width="0.52"/><rect x="125.91" y="6.67" width="0.96" height="24.1" fill="#fff"/><rect x="125.91" y="6.67" width="0.96" height="24.1" fill="none" stroke="#010101" stroke-width="0.52"/><rect x="132.97" y="6.67" width="0.96" height="24.1" fill="#fff"/><rect x="132.97" y="6.67" width="0.96" height="24.1" fill="none" stroke="#010101" stroke-width="0.52"/><line x1="3.07" y1="3.81" x2="3.07" y2="27.72" fill="#fff"/><line x1="3.07" y1="3.81" x2="3.07" y2="27.72" fill="none" stroke="#010101" stroke-width="0.56"/><line x1="137.67" y1="3.81" x2="137.67" y2="27.72" fill="#fff"/><line x1="137.67" y1="3.81" x2="137.67" y2="27.72" fill="none" stroke="#010101" stroke-width="0.56"/><line x1="3.07" y1="6.75" x2="137.57" y2="6.75" fill="#fff"/><line x1="3.07" y1="6.75" x2="137.57" y2="6.75" fill="none" stroke="#010101" stroke-width="0.83"/><polyline points="137.24 4.18 133.22 10.32 129.66 3.18 126.31 10.09 122.74 3.18 119.29 10.43 115.16 3.29 111.59 10.21 107.91 3.18 104.23 10.09 100.55 3.18 97.21 10.09 92.52 3.18 88.95 10.09 84.72 3.18 82.04 9.98 78.58 3.18 75.28 10.18 72.33 3.37 68.19 10.11 64.65 3.23 61.03 10.11 57.7 3.23 54.02 10.18 50.78 3.23 46.96 10.18 43.49 3.2 39.8 10.11 36.37 3.23 32.79 10.11 29.38 3.23 25.77 10.11 22.02 3.23 18.68 10.15 15.14 3.23 11.7 10.18 7.18 3.13" fill="none" stroke="#010101" stroke-miterlimit="1" stroke-width="0.56"/></g></g></svg>