<svg id="Layer_1" data-name="Layer 1" xmlns="http://www.w3.org/2000/svg" xmlns:xlink="http://www.w3.org/1999/xlink" viewBox="0 0 160.7 33.98"><defs><clipPath id="clip-path" transform="translate(-1.67 -1.67)"><rect width="164.04" height="37.31" fill="none"/></clipPath></defs><title>45-hc</title><g clip-path="url(#clip-path)"><g clip-path="url(#clip-path)"><rect x="1.49" y="2.04" width="157.74" height="31.09" fill="none" stroke="#010101" stroke-width="1.11"/><rect x="0.56" y="0.56" width="4.73" height="3.2" fill="#fff"/><rect x="0.56" y="0.56" width="4.73" height="3.2" fill="none" stroke="#010101" stroke-width="1.11"/><rect x="0.56" y="30.22" width="4.73" height="3.2" fill="#fff"/><rect x="0.56" y="30.22" width="4.73" height="3.2" fill="none" stroke="#010101" stroke-width="1.11"/><rect x="155.42" y="0.56" width="4.73" height="3.2" fill="#fff"/><rect x="155.42" y="0.56" width="4.73" height="3.2" fill="none" stroke="#010101" stroke-width="1.11"/><rect x="155.42" y="30.22" width="4.73" height="3.2" fill="#fff"/><rect x="155.42" y="30.22" width="4.73" height="3.2" fill="none" stroke="#010101" stroke-width="1.11"/><rect x="5.79" y="2.22" width="0.96" height="30.59" fill="#fff"/><rect x="5.79" y="2.22" width="0.96" height="30.59" fill="none" stroke="#010101" stroke-width="0.55"/><rect x="101.8" y="2.22" width="0.96" height="30.59" fill="#fff"/><rect x="101.8" y="2.22" width="0.96" height="30.59" fill="none" stroke="#010101" stroke-width="0.55"/><rect x="94.74" y="2.22" width="0.96" height="30.59" fill="#fff"/><rect x="94.74" y="2.22" width="0.96" height="30.59" fill="none" stroke="#010101" stroke-width="0.55"/><rect x="87.68" y="2.22" width="0.96" height="30.59" fill="#fff"/><rect x="87.68" y="2.22" width="0.96" height="30.59" fill="none" stroke="#010101" stroke-width="0.55"/><rect x="80.62" y="2.22" width="0.96" height="30.59" fill="#fff"/><rect x="80.62" y="2.22" width="0.96" height="30.59" fill="none" stroke="#010101" stroke-width="0.55"/><rect x="73.56" y="2.22" width="0.96" height="30.59" fill="#fff"/><rect x="73.56" y="2.22" width="0.96" height="30.59" fill="none" stroke="#010101" stroke-width="0.55"/><rect x="66.5" y="2.22" width="0.96" height="30.59" fill="#fff"/><rect x="66.5" y="2.22" width="0.96" height="30.59" fill="none" stroke="#010101" stroke-width="0.55"/><rect x="59.44" y="2.22" width="0.96" height="30.59" fill="#fff"/><rect x="59.44" y="2.22" width="0.96" height="30.59" fill="none" stroke="#010101" stroke-width="0.55"/><rect x="52.38" y="2.22" width="0.96" height="30.59" fill="#fff"/><rect x="52.38" y="2.22" width="0.96" height="30.59" fill="none" stroke="#010101" stroke-width="0.55"/><rect x="45.32" y="2.22" width="0.96" height="30.59" fill="#fff"/><rect x="45.32" y="2.22" width="0.96" height="30.59" fill="none" stroke="#010101" stroke-width="0.55"/><rect x="38.26" y="2.22" width="0.96" height="30.59" fill="#fff"/><rect x="38.26" y="2.22" width="0.96" height="30.59" fill="none" stroke="#010101" stroke-width="0.55"/><rect x="31.2" y="2.22" width="0.96" height="30.59" fill="#fff"/><rect x="31.2" y="2.22" width="0.96" height="30.59" fill="none" stroke="#010101" stroke-width="0.55"/><rect x="24.14" y="2.22" width="0.96" height="30.59" fill="#fff"/><rect x="24.14" y="2.22" width="0.96" height="30.59" fill="none" stroke="#010101" stroke-width="0.55"/><rect x="17.09" y="2.22" width="0.96" height="30.59" fill="#fff"/><rect x="17.09" y="2.22" width="0.96" height="30.59" fill="none" stroke="#010101" stroke-width="0.55"/><rect x="10.03" y="2.22" width="0.96" height="30.59" fill="#fff"/><rect x="10.03" y="2.22" width="0.96" height="30.59" fill="none" stroke="#010101" stroke-width="0.55"/><rect x="108.86" y="2.22" width="0.96" height="30.59" fill="#fff"/><rect x="108.86" y="2.22" width="0.96" height="30.59" fill="none" stroke="#010101" stroke-width="0.55"/><rect x="108.86" y="2.22" width="0.96" height="30.59" fill="#fff"/><rect x="108.86" y="2.22" width="0.96" height="30.59" fill="none" stroke="#010101" stroke-width="0.55"/><rect x="108.86" y="2.22" width="0.96" height="30.59" fill="#fff"/><rect x="108.86" y="2.22" width="0.96" height="30.59" fill="none" stroke="#010101" stroke-width="0.55"/><rect x="116.8" y="2.22" width="0.96" height="30.59" fill="#fff"/><rect x="116.8" y="2.22" width="0.96" height="30.59" fill="none" stroke="#010101" stroke-width="0.55"/><rect x="123.86" y="2.22" width="0.96" height="30.59" fill="#fff"/><rect x="123.86" y="2.22" width="0.96" height="30.59" fill="none" stroke="#010101" stroke-width="0.55"/><rect x="130.93" y="2.22" width="0.96" height="30.59" fill="#fff"/><rect x="130.93" y="2.22" width="0.96" height="30.59" fill="none" stroke="#010101" stroke-width="0.55"/><rect x="138.86" y="2.22" width="0.96" height="30.59" fill="#fff"/><rect x="138.86" y="2.22" width="0.96" height="30.59" fill="none" stroke="#010101" stroke-width="0.55"/><rect x="145.92" y="2.22" width="0.96" height="30.59" fill="#fff"/><rect x="145.92" y="2.22" width="0.96" height="30.59" fill="none" stroke="#010101" stroke-width="0.55"/><rect x="152.99" y="2.22" width="0.96" height="30.59" fill="#fff"/><rect x="152.99" y="2.22" width="0.96" height="30.59" fill="none" stroke="#010101" stroke-width="0.55"/><line x1="3.07" y1="3.81" x2="3.07" y2="29.94" fill="#fff"/><line x1="3.07" y1="3.81" x2="3.07" y2="29.94" fill="none" stroke="#010101" stroke-width="0.56"/><line x1="157.68" y1="3.81" x2="157.68" y2="29.94" fill="#fff"/><line x1="157.68" y1="3.81" x2="157.68" y2="29.94" fill="none" stroke="#010101" stroke-width="0.56"/></g></g></svg>