<svg id="Layer_1" data-name="Layer 1" xmlns="http://www.w3.org/2000/svg" xmlns:xlink="http://www.w3.org/1999/xlink" viewBox="0 0 144.02 31.75"><defs><clipPath id="clip-path" transform="translate(-1.67 -1.67)"><rect width="147.36" height="35.09" fill="none"/></clipPath></defs><title>45-hcrc</title><g clip-path="url(#clip-path)"><g clip-path="url(#clip-path)"><rect x="1.49" y="2.04" width="141.06" height="28.87" fill="none" stroke="#010101" stroke-width="1.11"/><rect x="0.56" y="0.56" width="4.73" height="3.2" fill="#fff"/><rect x="0.56" y="0.56" width="4.73" height="3.2" fill="none" stroke="#010101" stroke-width="1.11"/><rect x="0.56" y="28" width="4.73" height="3.2" fill="#fff"/><rect x="0.56" y="28" width="4.73" height="3.2" fill="none" stroke="#010101" stroke-width="1.11"/><rect x="138.74" y="0.56" width="4.73" height="3.2" fill="#fff"/><rect x="138.74" y="0.56" width="4.73" height="3.2" fill="none" stroke="#010101" stroke-width="1.11"/><rect x="138.74" y="28" width="4.73" height="3.2" fill="#fff"/><rect x="138.74" y="28" width="4.73" height="3.2" fill="none" stroke="#010101" stroke-width="1.11"/><line x1="3.07" y1="3.81" x2="3.07" y2="27.72" fill="#fff"/><line x1="3.07" y1="3.81" x2="3.07" y2="27.72" fill="none" stroke="#010101" stroke-width="0.56"/><line x1="141.01" y1="3.81" x2="141.01" y2="27.72" fill="#fff"/><line x1="141.01" y1="3.81" x2="141.01" y2="27.72" fill="none" stroke="#010101" stroke-width="0.56"/><rect x="8.64" y="2.24" width="1.84" height="28.36" fill="#fff"/><rect x="8.64" y="2.24" width="1.84" height="28.36" fill="none" stroke="#010101" stroke-width="0.55"/><rect x="7.57" y="1.12" width="3.97" height="2.06" fill="#010101"/><rect x="7.57" y="29.16" width="3.97" height="2.06" fill="#010101"/><rect x="134.48" y="2.24" width="1.84" height="28.36" fill="#fff"/><rect x="134.48" y="2.24" width="1.84" height="28.36" fill="none" stroke="#010101" stroke-width="0.55"/><rect x="133.41" y="1.12" width="3.97" height="2.06" fill="#010101"/><rect x="133.41" y="29.16" width="3.97" height="2.06" fill="#010101"/></g></g></svg>