<svg version="1" xmlns="http://www.w3.org/2000/svg" width="933.333" height="933.333" viewBox="0 0 700.000000 700.000000"><path d="M360 6.1c-5.8 3.4-12.1 7-14 8.1-1.9 1.1-24.9 14.5-51 29.8-26.1 15.2-48.8 28.5-50.5 29.4-1.6.9-4.3 2.5-6 3.5-1.6 1-8.6 5.1-15.5 9.1-27.8 16.2-83.2 48.6-86.1 50.3-1.7 1-21.3 12.4-43.5 25.3L53 185.2v343.4l20.7 11.9c11.4 6.6 23.2 13.4 26.2 15.1 3.1 1.7 16.9 9.6 30.6 17.6 13.8 8 26.4 15.3 28 16.2 1.7.9 4.4 2.5 6 3.5 1.7 1 5 2.9 7.5 4.3s16 9.2 30 17.3c14 8.2 26.5 15.3 27.7 15.9 1.3.6 2.3 1.4 2.3 1.8 0 .5.5.8 1.1.8.9 0 14.4 7.6 29.9 16.9 1.9 1.1 5.1 2.9 7 4 1.9 1 19.3 11 38.5 22.1 19.3 11.1 36.5 21.1 38.2 22.1l3.3 1.9 22.7-13.2c12.6-7.2 28.2-16.2 34.7-19.9 6.6-3.8 12.2-6.9 12.5-6.9.2 0 1.2-.6 2-1.4.9-.7 4.1-2.7 7.1-4.3 3-1.7 9.8-5.5 15-8.5 5.2-3.1 11.4-6.6 13.6-7.9 5.6-3.2 39.8-23 43.2-25 1.5-.9 4.7-2.7 7.2-4.1 4.7-2.7 91-52.6 97-56.1 1.9-1.1 4.9-2.8 6.5-3.7 1.7-.9 5.2-2.9 8-4.5 5.3-3.2 5.6-3.4 18.9-10.9l8.6-5V329.3c0-109.6-.2-199.3-.4-199.3-.5 0-25.7 14.9-28.8 17.1-1.5 1-2.9 1.9-3.2 1.9-.2 0-11.1 6.4-24.3 14.1-13.1 7.8-30.3 18-38.3 22.7-8 4.7-18.9 11.2-24.3 14.4-5.4 3.2-10 5.8-10.3 5.8-.3 0-1 .5-1.7 1-.7.6-11.8 7.3-24.7 14.9-12.9 7.5-44 25.8-69 40.6s-47.2 27.8-49.2 28.9l-3.8 2.1v61.2c0 33.7.2 61.3.4 61.3.3 0 11-5.7 23.8-12.6 12.8-7 26.7-14.5 30.8-16.7 4.1-2.2 12-6.5 17.5-9.5s10.9-5.8 12-6.3c1.1-.5 3.4-1.8 5.1-2.8 1.7-1 7.1-4 12-6.6 4.9-2.6 10.7-5.7 12.9-7 2.2-1.2 7.6-4.2 12-6.5s13.4-7.2 20-10.8c15.8-8.6 20.7-11.2 21.1-11.2.2 0 .4 31.2.4 69.4v69.4l-23.7 13.7c-13.1 7.6-25.6 14.8-27.8 16-2.2 1.3-12.3 7.1-22.5 13s-20.1 11.7-22 12.7c-1.9 1.1-12.3 7.1-23 13.3-10.7 6.2-21.1 12.2-23 13.3-1.9 1.1-9.1 5.2-16 9.2-6.9 4-14.3 8.3-16.5 9.5-2.2 1.3-6 3.4-8.3 4.8l-4.4 2.5-9.9-5.9c-5.5-3.3-10.1-5.9-10.3-5.9-.3 0-11.9-6.7-20.6-11.9-1.3-.8-37.7-21.8-48.4-28-2.3-1.3-7.9-4.5-12.4-7.2-4.6-2.7-8.5-4.9-8.7-4.9-.2 0-3.2-1.7-6.6-3.8-3.5-2.2-8.4-5-10.9-6.4-2.5-1.4-11.7-6.7-20.5-11.8-8.8-5.1-21.1-12.2-27.3-15.7l-11.2-6.5.2-108 .3-108 16.9-9.9c9.2-5.5 17-9.9 17.1-9.9.2 0 4-2.3 8.5-5 4.5-2.8 8.3-5 8.5-5 .2 0 11.8-6.7 42-24.3 3.9-2.2 10.3-6 14.2-8.4 4-2.4 7.5-4.3 7.8-4.3.3 0 1.8-.8 3.3-1.9 2.2-1.5 29.8-17.6 45.2-26.3 9.7-5.5 31.3-18.1 34-19.8.8-.6 3.1-1.9 5.1-2.9l3.6-2 .2-41.3c.1-22.7.3-51.8.4-64.6.1-12.7.2-23.2.2-23.2s-4.7 2.7-10.5 6.1z"/></svg>