<svg id="Слой_1" data-name="Слой 1" xmlns="http://www.w3.org/2000/svg" viewBox="0 0 1668.34 566.1"><title>logo_rgb</title><polygon points="226.5 533.54 0 402.77 0 141.23 242 0 241.5 98.33 84 189.73 84 354.27 226.5 436.55 369 354.27 369 248.16 241 317.38 240.86 224 453 98.8 453 402.77 226.5 533.54" fill="#0069a6"/><path d="M680.87,227.36H822.23V385.15q-57.58,17.62-126.57,17.62-75.72,0-117.05-39.25T537.27,251.59q0-70.89,45.25-110.33t126.8-39.45A313,313,0,0,1,767.68,107q27.44,5.21,47.83,13.22l-28,62.08q-35.4-15.62-77.74-15.62-38.76,0-59.93,22.53t-21.17,64.38q0,41.05,19.15,62.58t55.22,21.53a180.58,180.58,0,0,0,36.29-3.4V288.43H680.87Z" fill="#231f20"/><path d="M1000.42,292.24V398.77H911.93V106h107.31q133.52,0,133.52,86.51,0,50.86-55.56,78.7l95.43,127.56H1092.27l-69.45-106.53Zm0-59.47H1017q46.37,0,46.37-36.64,0-30.23-45.48-30.24h-17.47Z" fill="#231f20"/><path d="M1459.54,309.86q0,27.24-15.46,48.36t-44.58,32.84q-29.12,11.71-68.33,11.72-32.71,0-54.89-4.11a220.46,220.46,0,0,1-46.15-14.32V313.86A283,283,0,0,0,1282.78,332q27.33,6.51,50.18,6.51,19.71,0,28.9-6.11t9.19-15.72a16.08,16.08,0,0,0-3.7-10.51q-3.7-4.51-11.87-9.11t-43.57-18.82q-32-13-48.05-25.23t-23.75-28q-7.73-15.82-7.73-37.45,0-40.45,32.93-63.08t90.51-22.63q50.85,0,103.72,21l-27.11,61.07q-45.93-18.82-79.3-18.82-17.25,0-25.09,5.41t-7.84,13.42q0,8.61,10,15.42t54.1,24.83q42.34,17,58.81,36.54T1459.54,309.86Z" fill="#231f20"/><path d="M543.27,563.45v-106h15V552.2H606v11.25Z" fill="#0069a6"/><path d="M716.22,566.1q-22.57,0-36.08-15.15t-13.51-40.52q0-25.37,13.51-40.52t36.08-15.16q22.57,0,36.07,15.16t13.51,40.52q0,25.36-13.51,40.52T716.22,566.1Zm0-11.25q15.83,0,24.72-11.79t8.88-32.78q0-20.85-8.88-32.57T716.22,466q-15.84,0-24.72,11.71t-8.88,32.57q0,21,8.88,32.78T716.22,554.85Z" fill="#0069a6"/><path d="M917.9,560.58q-19.28,5.51-33.6,5.52-25.29,0-38.8-14.37T832,510.43q0-26.51,13.72-41.09t38.58-14.58a126.36,126.36,0,0,1,33.46,4.8v13.9Q895.83,466,884.15,466q-17.2,0-26.69,11.64T848,510.49q0,21,10.16,32.67t28.48,11.68a56.06,56.06,0,0,0,16.24-2.65V517.66h15Z" fill="#0069a6"/><path d="M995.55,563.45v-106h15v106Z" fill="#0069a6"/><path d="M1082.73,561.44v-14.9q17.91,8.31,29.52,8.31,8.81,0,14.22-4.69a15.41,15.41,0,0,0,5.41-12.22,16.29,16.29,0,0,0-3.55-10.6q-3.55-4.37-13.08-9.75l-7.31-4.23q-13.54-7.74-19.09-14.58a24.45,24.45,0,0,1-5.55-15.87,25.9,25.9,0,0,1,8.88-20.24q8.88-7.92,22.64-7.92a90.07,90.07,0,0,1,25.87,4.08v13.76q-16.77-6.59-25-6.59-7.81,0-12.9,4.16a13,13,0,0,0-5.09,10.46,13.52,13.52,0,0,0,3.73,9.39q3.72,4.08,13.61,9.74l7.6,4.3q13.76,7.81,19.2,14.76a26.26,26.26,0,0,1,5.45,16.7q0,13.83-10.17,22.21t-27,8.38Q1099.36,566.1,1082.73,561.44Z" fill="#0069a6"/><path d="M1244.86,563.45V468.65h-37.62V457.4h90.28v11.25h-37.62v94.79Z" fill="#0069a6"/><path d="M1363.72,563.45v-106h15v106Z" fill="#0069a6"/><path d="M1537.09,558a73.58,73.58,0,0,1-34.25,8.1q-24.72,0-38.19-14.47t-13.47-41.13q0-26.58,13.72-41.16t38.73-14.58q14.19,0,33.32,4.66v14.12q-21.78-7.52-33.6-7.52-17.27,0-26.73,11.68t-9.46,33q0,20.35,10.1,32t27.66,11.68q15,0,32.17-9.24Z" fill="#0069a6"/><path d="M1603.78,561.44v-14.9q17.91,8.31,29.52,8.31,8.81,0,14.22-4.69a15.41,15.41,0,0,0,5.41-12.22,16.29,16.29,0,0,0-3.55-10.6q-3.55-4.37-13.08-9.75l-7.31-4.23q-13.54-7.74-19.09-14.58a24.45,24.45,0,0,1-5.55-15.87,25.9,25.9,0,0,1,8.88-20.24q8.88-7.92,22.64-7.92a90.07,90.07,0,0,1,25.87,4.08v13.76q-16.77-6.59-25-6.59-7.81,0-12.9,4.16a13,13,0,0,0-5.09,10.46,13.52,13.52,0,0,0,3.73,9.39q3.72,4.08,13.61,9.74l7.6,4.3q13.76,7.81,19.2,14.76a26.26,26.26,0,0,1,5.45,16.7q0,13.83-10.17,22.21t-27,8.38Q1620.41,566.1,1603.78,561.44Z" fill="#0069a6"/></svg>